<svg width="24" height="24" viewBox="0 0 24 24" fill="none" xmlns="http://www.w3.org/2000/svg"><path fill-rule="evenodd" clip-rule="evenodd" d="M2 17.5555C4.4546 17.5555 6.44444 19.5454 6.44444 22C6.44444 19.5454 8.43429 17.5555 10.8889 17.5555C8.43429 17.5555 6.44444 15.5657 6.44444 13.1111C6.44444 15.5657 4.4546 17.5555 2 17.5555Z" stroke="currentColor" stroke-width="1.5" stroke-linecap="round" stroke-linejoin="round"/><path fill-rule="evenodd" clip-rule="evenodd" d="M13.1111 14.2223C15.5657 14.2223 17.5555 16.2121 17.5555 18.6667C17.5555 16.2121 19.5454 14.2223 22 14.2223C19.5454 14.2223 17.5555 12.2324 17.5555 9.77783C17.5555 12.2324 15.5657 14.2223 13.1111 14.2223Z" stroke="currentColor" stroke-width="1.5" stroke-linecap="round" stroke-linejoin="round"/><path fill-rule="evenodd" clip-rule="evenodd" d="M6.44434 6.44444C8.89893 6.44444 10.8888 8.43429 10.8888 10.8889C10.8888 8.43429 12.8786 6.44444 15.3332 6.44444C12.8786 6.44444 10.8888 4.4546 10.8888 2C10.8888 4.4546 8.89893 6.44444 6.44434 6.44444Z" stroke="currentColor" stroke-width="1.5" stroke-linecap="round" stroke-linejoin="round"/></svg>