<svg xmlns="http://www.w3.org/2000/svg" fill="none" viewBox="0 0 46 26"><path fill="currentColor" d="m24.97 1.41.095-.015.082.004.083.007.043.01.128.052.083.043.119.08.066.035.031.083.037.107h.053l.04-.063.1-.011.134.044.117.123.168.11.103.056h.104l.133-.055.14-.106.102-.018.06.01.035.082.042.032.11-.01.228.016.182-.022.042.047.037.075.073.023.1-.023.158.016-.021.012-.024-.003-.03.018-.038.038-.087.054-.136.07-.157.065-.32.116-.198.12-.088.073-.342.361-.207.192-.334.268-.032.034-.002.032.027.03.069.043.053.005.068-.009.268-.074.113-.052.111-.086.011-.003.047.016.014.008.144-.1.048-.013.037.002.046.04.011.024-.015.045-.042.068-.02.057.001.046-.018.05-.045.068.016.018.122-.049.018-.019.002-.011-.008-.014.014-.006.096.066.064.037.054.018.102-.022.15-.06.127-.073.106-.086.131-.053.159-.02.113-.03.068-.042.091-.082.052-.024.064-.008.049-.031.032-.056.062-.064.091-.071.052-.03.013.014.005.026-.004.037.023.03.049.022.022.03-.005.038.014.032.03.027.008.058-.014.088-.002.058.011.026.01.014.018-.014.022-.03.008-.02.006-.02.133-.09.026-.004.043.024.2.032.08.023.083.051.029.02.102.165.046.065.03.017.016.026.013.058.016.018.149.012.068-.01.04-.024.047.015.05.054.05.015.048-.023h.045l.043.025.02.018h.013l.085-.083.102-.073.137-.078.08-.036.021.009.126-.026.113-.003.15.016.14-.018.128-.053.113-.03.098-.006.038.015-.024.036-.014.061-.001.087-.009.055-.015.024-.002.022.012.02.096.014.05.028.057.002.065-.026.05.01.035.045.05.008.049-.032.034-.03.03-.014.023-.003.024.016.017.025.041.071.02.048.013.07.009.024-.001.042-.028.028-.008.022.017.022.094.007.043.022.016.024-.01.028.005.029.023.03.076.047.018.022-.005.023-.022.015-.04.007-.288-.043-.085-.008-.013.017-.008.002-.013-.004-.025-.001-.012-.01-.011-.03-.025-.019-.04-.008-.034.022-.04.087.006.016-.007.055.01.015v.012l-.012.01h-.023l-.036-.014-.135-.13-.103-.065-.127-.048-.1-.023h-.074l-.06.034-.048.066-.074.037-.101.01-.055.017-.008.027h-.037l-.064-.025-.066-.007-.068.011-.05.026-.053.08-.01.04-.04.035-.101.054-.005.02-.054.06-.017.034v.033l-.018-.002-.036-.037-.001-.05.033-.062.03-.03.026.001.016-.028.006-.057-.009-.03-.05.012-.027.023-.034.005-.04-.013-.037.031-.03.077-.037.05-.043.023-.03-.026-.014-.076v-.059l.017-.072-.009-.013-.018.023-.027.06-.036.13-.024.042-.031.017-.05.08-.068.138-.077.135-.086.13-.052.07-.017.01-.008.024-.004.083-.015.057-.045.044-.117.056-.019.038-.002.032-.076.13-.037.08-.024.082.008.052.04.021.031-.008.025-.038.037-.034.051-.03.037-.045.051-.11.058-.063.03-.004.01.002.06-.029.047.01.03.043.03.03.006.027-.015.062-.027.065-.04.068-.037.102-.032.136-.007.103.019.07-.018.061-.055.055-.044.072-.033.091-.019.076-.004.062.005.046.02.062-.002.032-.059.137-.02.066-.005.052-.014.052-.046.104-.014.058-.002.053.01.087-.006.03.003.022.01.015v.028l-.01.04.004.03.02.023.013.042.006.062.016.051.025.042.005.06-.016.079-.009.148v.216l.012.139.024.061.028.045.03.03.034.089.04.15.036.1.033.047.03.027.024.015.018.003.01.023.044.014.083.006.075-.01.069-.023.218-.127.085-.068.047-.062.046-.081.044-.101.09-.151.044-.092.042-.116.032-.121.02-.128.011-.133-.001-.137-.022-.14-.041-.14-.023-.07-.009-.02-.075-.18-.085-.251v-.022l.08-.15.002-.02-.008-.123-.017-.061-.04-.083v-.02l.083-.106.05-.08.046-.098.03-.114.012-.13V6.01l-.014-.043.001-.034.017-.024.089-.03.03-.052.006-.091.018-.045h.03l.028-.018.026-.038.034-.011.042.016.058-.056.076-.13.058-.073.04-.015.008.012-.025.038-.008.043.01.047-.008.045-.02.06.012.02-.032.099-.001.05.02.037.023-.013.027-.064.008-.034-.011-.004.004-.028.019-.05.017-.023.015.003.004.027-.007.052-.043.122-.008.037.01.01.051-.076.043-.122.033-.093.006-.051-.01-.132.002-.054.013-.037.045-.042.077-.047.076-.026.075-.003.052-.012.03-.023-.01-.018-.05-.013-.04-.03-.026-.045-.008-.053.008-.058.032-.058.056-.057.018-.042-.02-.027.023-.01.068.008.048-.007.027-.023.007.003.057.021.102.07.097.041.092.012.067.024.042.038.03.042.019.047.043.026.07.006.053.02.04.034.22.087.09.045.051.045.015.029-.005.028.005.03.038.06.014.005.009.028.003.052.011.034.019.018-.012.007-.067-.03-.039.01-.018.038-.002.036.012.034.086.103.023.094.004.114-.01.044-.01.097-.007.15-.002.051-.028.05-.077.072-.002-.013-.018-.004-.02.011-.028.061-.024.113-.029.06-.034.01-.02.016-.007.023-.037.015-.067.008-.045.034-.035.096.002.045-.016.057.001.05.018.04.054.04.09.04.053.007.037-.017.039-.066.037-.027.046-.01.017-.03.076-.133v-.03l-.028-.011.004-.008.035-.006.031-.017.026-.031.046-.023.111-.035.06-.04.038-.006.055.022.072.048.057.071.042.093.053.241.064.387.044.216.024.046.011.023-.056.3-.046.124-.08.071-.078.07-.099.116-.108.057-.055.033-.012.022-.014-.007-.029.063-.026.087-.01.067.008.037-.022.024-.04.044-.008.016.003.026-.009.012h-.02l-.015.012-.036.046-.063.12-.012.026.01.018.073.012.049.022.038.033.138.065.042.04.042.022.042.004.029-.012.015-.03.02-.002.024.026.078.027.002.01-.216.047-.045.023.054.015.055-.003.054-.024.064.001.055.011.017-.009.008-.005.094.063.035.01.037-.007.037-.024.084-.03.128-.04.123-.015.12.007.074-.01.069-.04.151-.13.175-.105.286-.13.426-.158.066-.036.067-.036.034-.02.039-.02.296-.164.153-.098.076-.07.081-.06.085-.046.067-.06.05-.074.054-.055.06-.036.032-.038.005-.04-.011-.053-.027-.068-.004-.053.02-.04.004-.026-.01-.013-.127-.039.006-.187-.002-.005.007-.002.29-.083.184-.029.226-.007.268.04.104.038.066.047.076.013.086-.022.12-.007.153.007.082.011.01.015.011-.004.01-.024.041-.026.115-.04.015.009.024-.02.032-.048.058-.053.086-.059.077-.03.069-.003.046-.014.023-.026.007-.023-.01-.02.005-.023.004-.01-.004-.01-.008-.019-.007-.095-.013-.045-.018-.034-.024-.021.002-.023.042-.027-.003.025.01.008.02-.012.044-.057.005-.022.03-.023.023-.034-.025-.005-.059.01-.013-.01.03-.047-.005-.026-.01-.011-.02-.005-.065.041-.02.004-.004-.022-.034-.048.092-.085.323-.236.033-.036.012-.033-.009-.028-.009-.007.005-.007.311-.306.177-.142.146-.08.111-.037.076.005.042-.005h.554l.331-.001h.332l.332-.001h.331l.332-.001.331-.001.079-.216.073-.101.1.033.053-.003.06-.052.048-.032.031.005.027.048.023.032.026-.01.023-.045-.001-.062.03-.044L43 5.14l.034.001.017-.021-.002-.03-.012-.05.004-.059.085-.105.103-.071.036-.036.01-.072.06-.075.03-.043.006-.038-.015-.046.002-.089.02-.106.024-.115.055-.104.09-.114.023-.15.024-.159.108-.154.123-.177.07-.1.126-.183.09-.131.045-.06.047-.071.077.021.077.021-.011.104.012.075.037.044.052.029.04.01h.047l.127-.06.15-.037.083-.036.015-.033.038-.011.06.01.11.083.13.125.101.098.003.171.002.181.002.19.002.135.002.185.002.146.003.191.001.102.014.03-.008.04-.004.02v.016l.007.02-.001.028-.013.025-.007.03-.002.047.014.03.024.017h.02l.025.017.032.03.05.028.051.009.036-.007.043.018.015.042-.009.04-.024.019-.026.014-.005.03.013.032.019.028.02.049-.008.042-.019.036-.008.037.016.031.042.043.026.04.041.023.02-.016.016-.021.016-.016.03.01.033.011.037.014-.005.034.023.058.017.11-.027.05.006.067.074.019.018.02.003.024-.163.17-.137-.023-.075.045-.078.013-.034.075-.043.016-.06-.004-.05-.021-.039.01-.054.136-.044-.012-.018.05-.023.02-.034.019-.03-.06-.018-.058-.028-.012-.037-.015h-.038l-.025.009-.032.037-.045.032-.035-.027-.026-.043-.024.07-.033.072.006.084-.015.05-.032-.013-.031-.044-.089-.035-.07.003.014-.047.067-.067-.02-.013-.034.009-.014-.01.024-.06.002-.069-.03.024-.037.071-.091.057.004.095-.085.194-.004.083-.055.066-.071.056-.095-.015-.072.048-.036.057-.032.008-.017-.071-.012-.022-.026.105-.027.007-.01-.075-.013-.05-.037.043-.025.113-.025-.01-.008-.041-.019-.013-.006.048.009.068-.013.036-.026-.02-.026-.032-.042.025-.039.01V6.91l.008-.04-.078.022-.092.075-.072.104.025.017.028.033-.126.16-.128.142-.097.233-.039.027-.033.043-.036.14-.04.124.022.056.015.057.037.056.03.005.034-.01.025.002.016.024-.007.028-.039.007-.072.05-.063.02-.032.06-.047.069-.092.108.039.033.142.038.064.038.096.201-.022.02-.009.037.086.051.027.144.07.05.105.03.128-.044.106-.06-.004-.049-.067-.114-.016-.054-.05-.035-.018.03-.032-.038-.004-.022.03-.01.035.004.04.02.105.125.029.163.006.103-.012.036-.03-.008-.058.007-.275.054-.062.047-.14.05-.008-.025.01-.052-.009-.109-.027-.005-.218.177-.084.01-.07.052-.017-.028-.012-.132.044-.111-.024.002-.073.066-.032-.041-.016-.045-.023-.025-.024-.01.021.098-.05.074-.014.19-.063.078-.196.051-.128-.01-.115.015-.153.036-.084-.021-.086.038-.293.01-.062-.02-.08.072-.126.043-.319.162-.07.058-.086.092-.058.05-.047.015-.03.041-.031.027.03-.091.034-.077.027-.15-.008-.121-.034-.05-.036-.033.042.12.007.146-.015.086-.078.165-.033.038-.04.034-.029.014-.027.027-.032.041-.03.083.019.075.152.028.042-.024.02.054.012.075-.011.081-.026.082-.02.102-.016.155-.024.139-.004-.042.016-.17-.025.018-.017.04-.047.217-.064.116-.06.08-.06-.013.013.063-.017.034-.014.069-.036.045-.034-.004-.049.031-.02.024v.046l-.034.04-.118.21-.103.063-.024-.01.027-.098.018-.1-.062-.044-.06-.024-.068.004-.076-.079-.098-.056-.136-.154.004-.043-.003-.072.041-.113.04-.08.055-.041.159-.042.04-.063.023-.053-.079.091-.117.031-.064.035-.05.052-.031.065-.068.079.005.052.011.038-.005.078.043.076.085.124.017.192.065.129.1.15.076.042.004.055-.035.092-.047.042.06-.009.03.021.03.077-.002.078-.01.043-.019.018.001-.045-.013-.016-.022.02-.014.022-.005.087-.015.043-.052.013-.054.113-.049.065-.193.435.007.072-.035.023-.054.02-.054.043-.036.047-.033.128-.065.144-.04-.06-.01-.051.018-.134.07-.22.076-.137.058-.065.048-.133-.06-.02-.093.002.017-.061.027-.054-.048-.054-.028-.007-.03-.022.035-.045.017-.048-.01-.058.014-.044-.024.007-.038.046-.024.019-.015-.041-.017.009-.01.028-.025.016-.052-.039-.076-.044-.042-.076-.024-.059.024-.106.053-.019.068.017h.09l-.014-.023-.031.004-.094-.087-.03-.052-.053-.015-.023.05-.027.014.033-.11.042-.004.063-.031-.018-.064-.04-.028-.072.035.001-.045.014-.057h.054l.047.018.04-.093.002-.041-.067.06-.015-.13.066-.126.063-.056.078.002.08-.009-.05-.023-.052-.012.039-.05.033-.01.032-.043-.077.006.009-.082-.038.017-.045.008-.018.035.004.058-.014.038-.035.03-.059.024-.006-.04-.02-.02-.007.089-.015.03-.044-.083-.013.017.002.023-.011.041-.037.021.002.052-.015.029-.119-.045-.002.015.067.098.049.033.006.053-.042.044-.058-.038-.01.003.031.065.02.057-.02.048.003.059-.005.053-.012.046.028.213.034.058.034.056.018.051-.036.008-.057-.043-.05-.032-.059-.104-.01-.042-.014-.033.007.076.021.084.186.188.034.072.026.056-.006.054-.049-.038-.042-.049-.11-.055-.14-.035-.08-.128v.053l-.017.046-.048-.056-.03-.047-.01-.052-.06.004-.064.045-.061-.01-.007-.089.016-.047.069-.11.065-.057.028-.073-.01-.113-.012.115-.037.057-.058.044-.076.077-.019.072-.023.134.032.045.033.012.097-.03.05.013.112.161.208.064.076.04.062.083.093.048.073.07.002.045-.025.054-.01.073-.03.046-.074.005-.045-.012-.24-.256-.028-.023-.089-.135-.104-.072-.032.002.148.133.06.093.107.13.076.055.056.086.052.04.142.058-.05.041.08.035.011.064-.007.074-.11-.03-.003.055.01.031-.049.027-.067-.036-.175-.195.002.026.014.03.102.126.09.075.077.034.059.063.02.038.015.058-.044.039-.05.021-.048-.039-.036-.04-.076-.07-.023-.08-.058.005-.242-.1-.195-.011.02.02.024.013.154.025.061.045.128.041.074.011.03.125.103.085.014.064.07.007.124-.062.08.022.115.018.027.05.02.095.04.107.106.42.158.343.02.058-.037-.051-.118-.227-.065-.164-.066-.29-.02-.065-.023-.026-.015.02-.006.038.01.028-.026.096.012.044.042.045.047.113.037.152-.05-.062-.054-.032-.083-.025-.074-.044.005.063-.007.068-.057-.02-.039-.023.035.072-.075-.022-.05.005-.032.064-.043.039-.065.012-.095-.058-.03-.072-.014-.08-.005.095.017.097-.006.075.092.013.086-.012.116.003.075-.013.046-.024.109.02.008.09-.013.089-.006.094h.03l.035-.03.018-.17.1-.063.033.004.032.055.011.055.011.076-.023.115-.153.135-.11.124-.056.025-.08-.014-.092-.031-.045-.007-.034.011-.021-.038-.014-.07-.035-.024-.027.003-.018.074-.086.021-.116-.03-.121-.063.052.067.302.125.034.023.031.034-.042.054-.033.06-.005.047-.011.03-.12.08-.066-.014-.166-.145.076.125.06.053.123.029.23-.047.075.05-.062.091-.06.063-.081.007-.072.018-.02.043-.051.003-.08.002-.122.004-.067-.01-.094.089-.035.012-.05-.017-.02-.071-.023-.035v.133l.008.036.018.027-.11.072-.105.09-.038.024-.043.045-.087.13-.022.095-.032.105-.004-.047.006-.08-.022-.091-.014.167-.034.078-.313-.006-.136.043-.21.141-.063.063-.174.24-.044.152-.036-.064.009-.048v-.04l-.043.081.041.123-.037.047-.114.088-.063.014-.07.025-.023.087-.095.08-.056.034-.102-.021.031.076-.037.058-.065.045-.08.029-.047-.004-.039.015-.03.037-.076.035-.078-.02-.088-.011-.05.02.083.035.045.049-.01.067-.022.025-.052.035-.023-.005-.014-.031-.017-.066-.025.014-.004.03-.02.012-.075-.104.003.079.026.06.025.032.026.018.006.028-.051.069-.026.015-.047.011-.026.042.008.037-.041.079-.097.05-.03-.003-.024.015.014.035.024.025V19l-.026.032-.051.01-.028.036.009.035.016.019-.003.033-.058.033-.014.033.03.01.021-.01.016.007-.034.055-.031.034-.03.06-.068.016.002.02.04.017.031.046-.06.085-.038-.007-.024-.018-.014.067.005.035-.014.074-.023.087-.016.036.003.067.01.065.037.083.057.34.04.118.069.317.116.306.163.37.267.444.032.063-.035.054-.01.055-.004.084.01.081.032.1.06.151-.034-.03-.088-.218-.01-.128.013-.182-.021.005-.017.059-.01.07-.022.026-.03-.106.002-.048.033-.056-.01-.02-.052-.029-.011-.045.007-.044-.03-.024h-.024l.016.111.025.067.03.162.05.098.03.081.337.87.08.11.03.078.03.165.007.212-.055.385-.012.262-.008-.008-.006-.028-.012-.004-.048.12-.065.108-.022.168-.031.083-.094.089-.058-.002-.143.066-.1-.017-.12.037-.078-.004-.045-.079.007-.035.018-.036.03-.008.106.083.02-.035-.032-.041-.061-.024-.045-.025-.09-.19-.095-.129-.016-.087-.162-.053-.117-.081-.077-.143-.044-.255-.051-.028-.022-.02.05-.095.054-.08-.042.02-.031.03-.04.07-.029.01-.026-.01-.03-.135.008-.165.043-.062-.066-.002-.068.024.01.055-.01.03-.049-.008-.038-.02-.05-.057-.07-.11-.143-.303-.028-.043-.047-.045.023-.014.04-.008.092-.137.072-.083.023-.057-.004-.025-.032-.036-.041.032-.018-.01-.047-.072-.045-.02-.031.016.032.059.03.022-.012.085-.011.028-.028.025-.044-.013-.022.02-.026-.022-.025-.037-.029-.062.076-.35.07-.224.008-.255.005-.038-.005-.069-.094-.148-.416-.362-.322-.432-.278-.162-.212.036-.037.032-.015.043.013.048-.02.02-.056-.002-.076.011-.2.114-.07-.005-.064.03-.048.022-.125.012-.106.025-.046-.014-.03-.065v-.069l.024.053.038.04.017-.016.006-.036-.037-.071-.12-.091-.136-.133.041.004.01-.029-.041-.037.018-.043.03-.046-.058.007-.052.032-.002.04-.01.03-.028-.004-.052-.039-.254-.108-.223-.061.171-.027.093.02-.011-.032-.023-.021-.073-.026-.093.01-.059-.013-.06.026-.066.04-.058.019-.23.028-.186.03.03-.032.032-.02.11-.032.016-.065-.025-.063-.03.015-.03.05-.037-.036h-.041l-.012.078-.053.052-.024.053-.155.041-.02-.013.046-.05-.004-.028-.052.024-.087.094-.305.031.016-.021.065-.005.09-.03-.018-.05-.035-.056-.032-.006-.021-.032v-.103l-.02-.06-.05-.062-.016.012-.037.106-.03.139-.015.044-.091.004-.08-.01-.273.017-.102-.047-.042-.01-.026.002-.118.043-.135.032-.032-.01-.046-.001-.098.111-.115.053-.291-.095-.073-.075-.064-.016-.08-.01-.084.094-.065.125.102.069.087.033.144-.028.08-.06.065.001.031-.012.029-.032.056.025.002.025-.04.036-.05.03-.03.035.057.07.09.024.033-.01.02-.08.055-.05.075.01-.01.033.01.03.035.052-.004.074.006.018-.08.032-.06.011-.048.043.025.025-.049.021-.033-.008-.016.008-.005.026-.026.024.037.073.075.048.053.06.214.078.051-.002.051.08.041.027.04.013-.005.055-.07.04-.02.047-.017.027-.032-.034-.032-.024-.075.074-.037.016.018-.08-.028-.032-.043-.08-.063-.05-.044-.017-.034-.032-.042-.012-.035.003-.06-.018-.005-.043-.017-.033-.047-.037-.224-.072-.002.03.016.022.032.015.039.029v.085l-.017.037-.007.051-.015.053-.028.041-.061.028-.027-.023-.044-.113-.062-.036-.098-.004-.067.026-.072.109-.06.018-.2-.057-.229-.086.006-.03.036-.009.07.012-.004-.03-.07-.096-.014-.044.01-.053-.024.001-.042.045-.146-.038-.04-.046-.086-.128-.12-.004-.056-.077-.099.032-.05.036-.044.056.017.029.044.046-.02.022-.14.033-.328-.037-.096-.034-.128-.073-.178-.059-.085-.01-.084.012-.244.006-.057.016-.048.025-.031-.028-.015-.05.029-.007.031-.03.028-.057.004-.035-.02-.023-.038-.002-.083.15.047.084-.003.03-.166.018-.379.169-.147.091.007-.03.178-.119-.063-.018-.1.03-.037-.012.043-.097-.014-.087-.072-.002-.046.069-.032-.003-.042-.03-.032.01.024.156.045.064.038.082-.104.1-.096.083-.01.08-.097.104-.091.06-.214.138-.061.03-.097.064-.132.048-.128.076-.043.012.081-.065.097-.064-.083.01-.128-.03-.078-.002v.023l-.06.034-.061-.049-.027-.032-.013-.029-.026-.007-.025.014.092.198.04.008.043.02-.054.046-.058.035-.092.023-.077-.072-.017.09-.01.09-.026.024-.041.033-.023-.025-.01-.035-.027.031-.039.024-.064.005-.048.012.001.037.011.038.085-.03-.03.097-.079.095-.064.023-.098-.014-.024.01-.021.02.114.148-.074.224-.047.08-.032.011-.036.003-.126-.072-.069-.056.061.152.166.044.008.057v.049l-.033.057-.03.076.022.053.026.131.022.06.024.182.027.08.15.288.05.003.008.03-.005.06-.107.018-.046.027-.009.023-.006.013-.014-.002-.051-.016-.118-.082-.17-.051-.225-.02-.153-.041-.082-.063-.086-.037-.09-.012-.074-.034-.059-.056-.086-.036-.113-.016-.074-.042-.051-.104-.046-.174-.058-.109-.113-.134-.01-.018v-.022l.013-.079-.012-.056-.035-.047-.009-.048.02-.052v-.061l-.016-.072-.071-.079-.127-.083-.108-.123-.089-.162-.088-.112-.087-.062-.06-.077-.031-.09-.01-.052.013-.015-.053-.1-.12-.187-.07-.136-.017-.087-.076-.103-.136-.12-.073-.078-.018-.054-.21-.158-.062-.099-.048-.03-.055.003-.028-.01-.001-.022-.018-.001-.034.02-.113.004-.19-.012-.137-.027-.084-.041-.06.005-.033.053-.072.035-.11.015-.096.099-.08.181-.034.117.01.052-.021.038-.052.023-.053.053-.053.081-.063.04-.07-.003-.133-.063-.191-.123-.15-.076-.11-.03-.096-.057-.084-.085-.077-.057-.07-.028-.082-.095-.095-.16-.047-.125v-.131l-.123-.287-.065-.125-.049-.057-.095-.068-.142-.08-.19-.16-.237-.24-.168-.145-.1-.05-.085-.086-.073-.125-.07-.08-.008-.003-.006-.002h-.176l-.175-.002-.175-.001h-.175l-.175-.002H13.5l-.175-.002-.175-.001v.104l-.003.106v.104l-.001.104h-.282l-.282.001h-.281l-.282.001h-.282l-.281.001h-.282l-.282.001-.378-.137-.378-.137-.378-.137-.378-.138-.377-.138-.378-.138-.378-.139-.378-.138.038-.053.05-.142-.09.01-.229.02-.228.02-.228.02-.228.02-.228.021-.228.02-.228.02-.228.02-.002-.006-.005-.102-.037-.037-.048.023-.021-.134.012-.063-.006-.062-.045-.152-.118-.184-.256-.23-.13-.077-.102-.098-.065-.027-.082-.007-.024.044-.092-.03.014-.11-.09-.151-.075-.017-.186.01-.248-.083-.073-.05-.026-.09-.116-.077-.153-.076-.086.018-.111-.012-.16-.055-.093-.007-.18.016-.068-.011-.063-.07-.067-.034.014-.086-.009-.077.01-.06-.03-.133.024-.122-.02-.045-.039-.034-.12-.05-.022-.063.02-.088-.031-.058-.099-.054-.091-.123-.117-.068-.047-.113-.072-.07-.025-.061-.159-.222-.17-.173-.026-.1-.006-.138.066-.084.036-.074-.004-.067-.01-.05-.059-.087-.226-.051-.183-.215-.011-.165-.072-.168-.001-.11-.011-.12.055-.026.048.01-.004.047.016.085.058.064.054.028.05.062.038.02.039.004-.021-.04-.022-.026-.027-.082-.051-.106-.06-.058-.029-.107-.026-.024-.015-.04.056-.047.078-.033.104-.01.295.016.062-.027.052.009.038-.004-.08-.028-.045.01-.053-.007-.105.006-.043-.012-.047-.033-.03-.004-.098.059-.043-.007-.103-.064-.045-.01-.072.037-.009.156.023.116-.043.012-.05-.048-.078-.028-.063-.043-.09-.081-.047-.03-.053.068-.002-.031.026-.078-.007-.131.08.104-.025-.073-.063-.082-.047-.028-.06-.145-.134-.088-.107-.141-.22-.236-.015-.207-.08-.263.033-.15-.004-.106-.04-.161-.041-.088-.179-.242-.171-.162-.026-.124-.012-.125.037-.111.033-.118.023-.03.01.012-.007.025.025.008.01-.052.014-.027-.026-.003.003-.017.015-.032.053-.155-.005-.195.057-.24-.003-.08-.036-.171-.037-.104-.065-.073.03-.107-.003-.102-.115-.147-.043-.194-.009-.082.012-.217-.03-.094L.137 8l.032-.134.035-.082.086-.357.021-.03.036.001.063-.06-.03-.015-.043.03.039-.143.044-.122.028-.043.015-.4.025-.307.04-.102-.014-.105.017-.142-.012-.145.088-.698-.011-.085.027-.114-.026-.302.012-.339-.023-.043-.011-.047.021-.007.04.05.19-.001.122-.046.044.015.05.062.065.013.08-.011-.024-.016-.038-.004-.084-.058-.048-.057-.148.004-.03-.037-.166.037-.05-.038-.09.025.021-.107-.004-.136.005-.132.022.097.056.102.027-.116.019-.146L.6 3.653l-.09-.042-.033-.136.215-.117-.114-.024-.045-.053-.056-.006-.004.04-.018.053-.02-.07-.005-.083-.023-.142-.088-.229-.053-.298L.2 2.398l-.128-.141-.034-.083-.03-.21.017-.16L0 1.692l.062.006.162.089.202.069.06.05.099.038.543.058.035-.006.07-.036.03.005.08.082.04.01.052-.004.038-.016.066-.056.009.02-.002.053.024.075.048.096.018.06-.097.168-.019.003-.003-.057-.012-.01-.183.283-.064.134-.007.06.003.035.025.009.059-.014.086-.055.005-.013-.081.02-.039.002.006-.063.009-.03.053-.094.055-.057.079-.06.045-.05.031-.072.088-.086.016-.024-.004-.072.006-.013.042.01.018.122-.01.055-.076.066-.01.024.013.09-.011.01-.03-.011-.008.006.071.098.023.077.003.068-.02.13-.02.022-.035-.008-.047-.04-.011.012-.037.102-.013-.01-.023-.12-.013-.008-.072.054-.03.053-.024.084-.032.04.09.008.082-.017.065.04H1.6l.06-.038.018-.027.05-.126.024-.023h.037l.035-.02.053-.07.002-.027-.02-.156.007-.088-.01-.028-.024-.03.003-.028.018-.047.002-.042-.016-.037.007-.043.05-.092.01-.041.06-.092-.015-.037-.045-.046-.028-.04-.029-.062-.021-.02-.008.009.03.102-.006.007-.079-.055-.018-.035-.01-.047.007-.036.043-.035.05-.013-.004-.029-.063-.096-.043-.043-.032-.021-.044-.006-.02-.016-.005-.022.01-.03.023-.01.068.013.036-.021-.003-.038-.011-.022.002-.137-.026-.111-.014-.02-.014-.001-.015.015-.043.004-.026-.037-.03-.07-.052-.169H23.36l.188.002.003-.256.002-.202.172.025.051.036.017.018-.005.056.014.169.032.14.072.168.006.066.024.041.043.039.165.046.286.054.162.062.038.07.076.028.115-.014.08-.029.068-.065ZM1.535 1.343l.011.026-.032.025-.023.004-.036-.04-.016-.006.013.063-.005.022-.074-.039-.014-.03.021-.033.047-.033.016-.004zm-.184.205.021.04-.085-.026-.036-.022-.011-.022-.013-.072.006-.024.038-.008.072.09zm.154.083-.013.012-.043-.015-.025-.027-.008-.033.016-.064.021-.016.013.003.006.056.038.06zm.197.327.04.156.016-.065.109.112v.055l-.013.019-.023.006-.02-.016-.02-.039-.024-.02-.052-.013-.027-.044-.01-.03-.002-.087-.013-.028-.028-.006-.026-.02-.041-.061-.006-.017.02-.05.044-.083.032-.04.02.005.024.025.03.046-.006.032-.119.063-.004.015.058.018.021.015zm26.79.274-.003.02.029.005-.006.01-.031.018-.09.036-.059.012-.03-.013-.004-.024.024-.036v-.017H28.3l.006-.015.036-.028.312-.178.133-.065.071-.02.012.01-.077.067-.013.027.003.018-.025.036-.228.125-.035.012Zm-26.73.39-.004.023-.044-.027-.014-.025.002-.056.01-.036.009-.008.026.016.007.01.009.103Zm.083.234-.004.026-.03.02-.016-.004-.001-.032-.009-.005-.033.038.003-.074.016-.079.014-.001.021.051zm27.232.215-.015.038.003.023-.096.1-.036.062-.029.01-.024-.043v-.034l.024-.026.024-.037.003-.052-.01-.018-.029.046.017.01.004.008-.005.016-.112-.024-.033-.036.006-.05.037-.065.134-.136.059-.038.167-.06.093-.014h.092l.068.02.042.04-.04.026-.183.022-.006.007.036.022.006.015-.032.04zM1.48 3.078l-.008.023-.011-.001-.025-.047-.003-.033.021-.023.029.068zm25.841.208-.026.018-.01-.008.006-.036.013-.02.02-.007.01.01v.022zm-.224.114-.012.009-.03-.02-.005-.016.009-.016.014.004.02.023zm.129.01-.027.006-.057-.01V3.39l.06-.023.026-.007.007.01zm-.13.157-.047.016-.019-.003.008-.022.024-.026.106-.065.018.001.006.016-.052.032-.019.017-.002.018zm5.24.485v.025l-.023-.006-.021-.016-.016-.028-.02-.07-.032-.049.047-.056.028-.006.03.012.004.033-.022.053.001.053zm.01.134-.01.006-.04-.045-.01-.027.007-.023.015-.001.025.02.014.025.003.028zm.492.266.008.025-.02.037-.055.02-.114-.003-.073-.014-.034-.027-.008-.013.004-.03.016-.002.024.016.036-.007.048-.03.026-.022.002-.015-.016-.03.013-.011.06.01.022.02.04.064zm-.84.219.103.016.01-.01.029.03.004.026-.012.022-.018.011-.023.002-.037-.021-.06-.057zm-.792.247-.027.006-.02-.014.003-.053.027-.093.028-.042.037.017-.008.012.008.099-.014.043zm-1.044.283-.024.01-.044-.003-.015-.026.023-.064.009.012h.038l.013.007.004.016zm-.104.125-.014.014-.025-.01-.01.022.006.051-.008.024-.022-.004-.001.01.02.023.001.025-.015.027-.015.013-.014-.002-.021.031-.03.065-.01.037.01.01-.008.021-.073.098-.029.01-.03-.014-.023-.029-.012-.043-.004-.033.005-.024.065-.087.029-.056.016-.063.03-.04.044-.018.035-.04.027-.061.031-.027.035.008.016.023zm.81.156-.01.015-.022-.001-.017-.015-.018-.05.006-.01.043.007.015.02zm14.176.857-.046.022-.051-.01v.059l-.005.02-.056-.03-.02-.019.001-.077.05-.073.038-.03.049.02.037.083zM38.73 6.4l-.025.01-.006-.014.004-.012.021-.015h.035l-.004.012zm5.968.09-.03.022-.033-.007-.001-.055.01-.018.011-.008.017.015zm-6.088.227-.012.003.001-.023.013-.016.023-.006v.011zm-2.126 1.056-.024.037-.024-.004-.017-.011-.006-.024.004-.03.021-.012.057.01.002.013zm6.127 1.636-.04.03-.043-.006.022-.039.009-.057.022-.063.012-.02.026-.017zm-.098.008-.023.02-.008-.052.016-.059h.016l.007.03zm.681.114-.22.052-.034-.033.054-.016.07-.079.045-.009.073.045zm.424.117-.061.017-.142-.038.116-.033.02-.012.015-.048.002-.025.044.105zm-2.017.294-.057.068.051.007.044-.02.042-.04.096-.055.083-.024.026-.005.04.039.078-.031.08-.017-.347.174-.071.02-.102.052-.096.037-.07.013-.343.13-.027.002-.03-.012-.283.066-.116.007-.106.023.078-.053.002-.02-.019-.016-.042.005-.043.055-.068.018-.014-.06.023-.046.031-.044.068-.07.098-.043.05-.038.034.033.007-.045.026-.026.029-.014h.069l.037-.008.027-.015.027-.003.076.021.073-.006.06-.028.061-.01.164-.006.162-.02.065-.038.136-.103.078-.029-.122.12zm-1.338.484-.038.004.038-.1.07-.046.025.01.001.035-.01.03-.046.047zm.044.871-.094.155-.002-.03.117-.192zm-.956 1.819-.037.017.122-.201.07-.17.032-.058-.03.118-.054.109-.104.185Zm-.242 2.01-.011.02-.054-.109.055.035.01.03zm.073.598-.106.027-.01-.009.123-.055.038-.195.006-.09-.018-.159v-.033l.02.051.017.149-.006.112-.035.163-.029.04Zm-.189.049-.145.069-.016-.005.095-.049zm-.575.527-.02.011.073-.12.144-.152.039-.024-.12.13zm-.034-.011-.018.002-.031-.01-.043-.02-.01-.016.041.006.06.038Zm-34.536.55.162.05.088-.024.016.024-.01.02-.197.037-.061-.026-.005-.035-.02-.034.027-.011Zm-.338.053-.042.003-.065-.01.023-.023.036-.016.011.012zm.21.101-.056.014-.042-.013-.068-.091.144-.012.061.04.009.01zm1.351.507.04.07-.057-.01-.06.005-.02-.038-.017-.053-.012-.014-.042-.004-.003-.005-.005-.026.012-.012.13.059zm-.869.159-.035.002-.049-.01-.025-.05.04-.003.037.007.03.04zm.867.367-.046.009-.052-.02-.044-.09-.049-.071.027-.02.04.068.098.104zM34.5 19.755l-.035.224-.015-.08-.002-.077.027-.045.026-.023Zm-5.301.66-.07.02-.104-.002-.021-.007.041-.013.124-.018zm-.388.034-.01.01-.07-.02-.043-.017-.008-.018.118.032.013.012Zm-.53.12.002.042-.039-.021-.058-.002.026-.014.018-.015.009-.015.073-.053-.021.039zm.316.252-.023.03.022-.14-.03-.117.032.051.01.062zm-.05.087-.043.047.002-.018.032-.048.023-.018zm3.173.063-.08.033-.086-.024.053-.004.04.01.098-.048.051-.035.06-.013zm-5.487.129-.03.013-.131-.079-.009-.033.065-.03.04.002.063.04.023.011.01.016-.005.026zm-2.587.322-.04.009.174-.14.036-.046.047.002-.078.078zm-1.375.894-.029.004.037-.049.059-.024.129-.093.053-.006.027-.032.012-.005-.007.04-.104.055zm-.199.225-.017.002.039-.073.007-.03.063-.092.034-.014.014.04-.066.065zm13.41.555.014.066-.074-.152-.09-.239-.049-.184.033.05.032.103zm-13.68-.019-.025.051.007-.076.065-.173.131-.229.055-.038-.151.25zm.146 1.01-.011.04-.066-.19-.108-.434-.004-.248.017-.086.028.35.119.444.025.123Zm12.023-.347-.001.052-.04-.087-.027-.096.038.03zm.037.087-.029.023-.057-.017-.031-.03-.014-.06.05.064.018.014zm1.32 1.15-.16.165.018-.041.062-.088.02-.041.042-.027.039-.047.002-.055.057-.039.019-.006-.1.18Zm-.205.21-.022.003.032-.037.009.003-.02.03Zm-.153.086h-.015l.008-.013.031-.024.012.01-.002.012zm-.17.075-.037.021-.038-.015.042-.021.123-.022-.047.027zm-.232.058-.024.018-.011-.006v-.026l-.034-.058v-.015l.079.057.001.015zm-.185.044-.052.008.042-.034.013-.052.025.04v.025zm-.173.048-.02.002-.002-.013.035-.017.023.001v.018z"/></svg>