<svg width="24" height="24" viewBox="0 0 24 24" fill="none" xmlns="http://www.w3.org/2000/svg"><path d="M11.7998 15.1L10.0998 16.8L10.2998 19C10.2998 19.3 10.1998 19.6 9.9998 19.8L8.8998 20.9L6.7998 17.4L3.2998 15.3L4.2998 14C4.4998 13.8 4.7998 13.7 5.0998 13.7L7.2998 13.9L10.6998 10.5L3.8998 7.90001C3.2998 7.60001 3.0998 6.80001 3.5998 6.30001L4.2998 5.60001C4.4998 5.40001 4.8998 5.30001 5.1998 5.30001L14.0998 7.10001L17.3998 3.80001C18.1998 3.00001 19.3998 3.00001 20.1998 3.80001C20.9998 4.60001 20.9998 5.80001 20.1998 6.60001L16.8998 9.90001L17.2794 11.7767M18.4998 17.225L17.2505 18.475L16.4998 17.725M13.4997 16.5L13.4998 18.4425C13.4998 20.1372 15.8745 21.3959 16.9665 21.8852C17.3055 22.0383 17.6941 22.0383 18.0331 21.8852C19.1251 21.3959 21.4998 20.1399 21.4998 18.4425V16.5C21.4994 15.9383 21.5282 15.5146 20.9997 15.3242L18.2072 14.1892C17.5066 13.937 17.4719 13.937 16.7713 14.1892L13.9997 15.3242C13.4708 15.5147 13.4996 15.9378 13.4997 16.5Z" stroke="currentColor" stroke-width="1.5" stroke-linecap="round" stroke-linejoin="round"/></svg>