<svg width="24" height="24" viewBox="0 0 24 24" fill="none" xmlns="http://www.w3.org/2000/svg">
<path d="M16 2V6M8 2V6M3 9H21M7 12.7288C6.86187 12.7288 6.7499 12.8408 6.7499 12.9789C6.7499 13.117 6.86187 13.229 7 13.229C7.13813 13.229 7.2501 13.117 7.2501 12.9789C7.24747 12.8955 7.19766 12.7288 7.01953 12.7288M6.98047 16.729C6.84234 16.729 6.73036 16.841 6.73036 16.9791C6.73036 17.1172 6.84234 17.2292 6.98047 17.2292C7.1186 17.2292 7.23057 17.1172 7.23057 16.9791C7.22793 16.8957 7.17812 16.729 7 16.729M12.013 16.729C11.8749 16.729 11.7629 16.841 11.7629 16.9791C11.7629 17.1172 11.8749 17.2292 12.013 17.2292C12.1511 17.2292 12.2631 17.1172 12.2631 16.9791C12.2605 16.8957 12.2107 16.729 12.0325 16.729M12.013 12.7288C11.8749 12.7288 11.7629 12.8408 11.7629 12.9789C11.7629 13.117 11.8749 13.229 12.013 13.229C12.1511 13.229 12.2631 13.117 12.2631 12.9789C12.2605 12.8955 12.2107 12.7288 12.0325 12.7288M16.9805 12.7288C16.8423 12.7288 16.7304 12.8408 16.7304 12.9789C16.7304 13.117 16.8423 13.229 16.9805 13.229C17.1186 13.229 17.2306 13.117 17.2306 12.9789C17.2279 12.8955 17.1781 12.7288 17 12.7288M19 4H5C3.895 4 3 4.895 3 6V19C3 20.105 3.895 21 5 21H19C20.105 21 21 20.105 21 19V6C21 4.895 20.105 4 19 4Z" stroke="currentColor" stroke-width="1.5" stroke-linecap="round" stroke-linejoin="round"/>
</svg>