<svg xmlns="http://www.w3.org/2000/svg" fill="none" viewBox="0 0 202 48" role="presentation" preserveAspectRatio="xMinYMin" class="DwbroHBHWXWPCpIQfQPh"><title>Virgin Atlantic Logo</title><path class="VJa4hk77ay2cLh0ljF_Q" d="M9.809 43.082h-1.74L.015 25.67h2.323l6.637 14.824 6.553-14.824h2.205l-7.93 17.412h.007Zm11.798-19.346h-1.99v-2.31h1.99v2.31Zm0 19.346h-1.99V25.67h1.99v17.412ZM54.372 23.7H52.39v-2.31h1.982v2.31Zm0 19.346H52.39V25.635h1.982v17.412Zm49.969 0h-1.99V21.391h1.99v21.656Zm46.087-19.346h-1.983v-2.31h1.983v2.31Zm0 19.346h-1.983V25.635h1.983v17.412Zm-53.475 0h-1.976V21.391h1.976v4.25h3.409v1.851h-3.409v15.562-.007Zm46.087 0h-1.976V21.391h1.976v4.25h3.402V27.5h-3.402v15.555-.007Zm-58.463.369c-3.227 0-6.497-1.885-6.497-5.489v-.063c0-3.777 2.623-5.69 7.77-5.69h4.863v-.049c0-3.165-1.795-4.779-5.336-4.779-1.718 0-3.353.41-5.175 1.301l-.167.084-.73-1.65.152-.069c1.934-1.002 4.119-1.537 6.143-1.537 2.344 0 4.132.598 5.322 1.78 1.148 1.155 1.718 2.742 1.718 4.842v10.957h-1.927v-2.31c-.786.967-2.81 2.679-6.136 2.679v-.007Zm-4.466-5.58c0 2.178 1.941 3.771 4.62 3.771 2.99 0 6.017-1.704 6.017-5.523V33.99h-4.689c-4.222 0-5.94 1.113-5.94 3.853l-.008-.006Zm33.148 5.58c-3.221 0-6.49-1.885-6.49-5.489v-.063c0-3.777 2.615-5.69 7.77-5.69h4.87v-.049c0-3.165-1.802-4.779-5.343-4.779-1.711 0-3.353.41-5.176 1.301l-.167.084-.723-1.65.146-.069c1.941-1.002 4.132-1.537 6.15-1.537 2.337 0 4.132.598 5.314 1.78 1.155 1.155 1.712 2.742 1.712 4.842v10.957h-1.913v-2.31c-.786.967-2.804 2.679-6.15 2.679v-.007Zm-4.466-5.58c0 2.178 1.941 3.771 4.619 3.771 2.998 0 6.018-1.704 6.018-5.523V33.99h-4.689c-4.216 0-5.948 1.113-5.948 3.853v-.006Zm-37.078 5.211h-1.983V33.85c0-1.99 0-6.65-5.106-6.65-3.638 0-5.809 2.762-5.809 7.374v8.48h-1.975V25.642h1.975v2.9c.703-1.078 2.519-3.192 6.039-3.192 4.424 0 6.859 2.685 6.859 7.547v10.15Zm66.984 0h-1.989V33.85c0-1.99 0-6.65-5.113-6.65-3.632 0-5.795 2.762-5.795 7.374v8.48h-1.983V25.642h1.983v2.9c.702-1.078 2.511-3.192 6.031-3.192 4.424 0 6.866 2.685 6.866 7.547v10.15Zm-97.002 4.94c-4.507 0-7.38-2.36-7.694-2.63l-.125-.105 1.127-1.593.14.105c1.725 1.217 3.707 2.344 6.58 2.344 4.049 0 6.275-2.421 6.275-6.825V38.4c-1.148 1.788-3.652 3.416-6.692 3.416a8.267 8.267 0 0 1-5.58-2.213c-1.634-1.523-2.532-3.645-2.532-5.94v-.07c0-2.316.898-4.445 2.533-5.969a8.171 8.171 0 0 1 5.579-2.247c3.075 0 5.572 1.559 6.692 3.263v-2.97h1.94v13.579c0 2.928-.646 4.918-2.128 6.434-1.454 1.496-3.624 2.31-6.122 2.31l.007-.007Zm-.23-20.69c-3.582 0-6.197 2.623-6.197 6.24v.063c0 3.54 2.726 6.317 6.212 6.317 3.13 0 6.504-2.4 6.504-6.275v-.063c0-3.923-3.311-6.268-6.518-6.268v-.014ZM161.413 43.25c-4.89 0-8.723-3.924-8.723-8.925v-.063c0-5.05 3.833-8.995 8.723-8.995 4 0 6.282 2.33 6.887 3.054l.104.125-1.252 1.357-.125-.14c-1.732-1.697-3.576-2.525-5.642-2.525-3.694 0-6.587 3.096-6.587 7.061v.063c0 3.993 2.949 7.116 6.72 7.116 2.796 0 4.653-1.614 5.523-2.574l.118-.139 1.301 1.19-.09.125c-.772 1.134-3.228 3.27-6.964 3.27h.007Zm-135.339-.167h-1.99V25.67h1.99v4.146c1.544-2.818 4.25-4.432 7.34-4.3h.173v2.074h-.348c-3.568 0-7.172 2.56-7.172 8.299v7.193h.007Z"/><path class="VJa4hk77ay2cLh0ljF_Q" d="M200.96.021h-17.023c-5.266 0-6.56.863-8.66 3.172L160.056 19.89c12.16-.584 15.902 11.659 28.257 8.306L200.953.028l.007-.007Z"/><path class="QLCLBkHvBXWCRvQOyTw4" d="M178.671 6.567s.759-1.398 1.357-1.857c0 0 .654-.397.668-1.05 0 0 .048-.432-.299-.703 0 0-.919-.745-1.67.528 0 0-3.527 6.672-4.744 13.406 0 0-.091.215-.119-.397 0 0-.521-5.649-.542-5.857-.021-.202 0-.717-.48-.752 0 0-.557-.097-.884.738l-1.565 3.86s-.257.48.16.662c0 0 .466.264.772-.39l.724-1.551c.139-.32.25-.272.25-.272.084.021.118.334.118.334s.633 7.576.64 7.638c.007.056.063.668.571.668.369 0 .487-.417.563-.758.077-.348.759-3.951 1.913-7.847.752-2.546 1.719-5.092 2.574-6.414l-.007.014Zm-1.043 6.609c-.724.16-.821.995-.821.995l-.445 3.304c-.07.654.779.18.779.18.348-.208.41-.64.41-.64l.133-.827.41-2.233c.132-.932-.473-.772-.473-.772l.007-.007Zm1.454.292s-.237 1.725-.279 2.1c0 0-.319 1.455.46 1.19 0 0 .633-.174.73-1.057l.125-1.238s.042-.918.772-1.322c0 0 .787-.355.543-.835 0 0-.146-.39-.612-.18-.355.152-.543.18-.543.18s-.466.056-.542.07c0 0-.578.028-.661 1.092h.007Zm-.605-1.969c.48-.382.333-.702.333-.702-.18-.515-.827.034-.827.034-.55.39-.362.773-.362.773.243.417.849-.105.849-.105h.007Zm7.979 2.4s.619-.132.73-.841c0 0 .369-2.637.39-2.727.014-.09.174-.78-.313-.675 0 0-.599.111-.703.702l-.466 2.595-.084.522s-.118.563.453.41l-.007.014Zm1.488-5.516s.522-.432.286-.752c0 0-.223-.327-.835.112 0 0-.557.452-.216.772 0 0 .32.299.772-.132h-.007Zm6.519 3.214c-.126-.216-.439-.362-1.002-.112-.598.258-.849.376-.87.383-.014 0-.737.376-.661-.591l.223-2.296s.091-.835-.563-.835c0 0-.348-.035-.905.445 0 0-.271.258-.48.313a.79.79 0 0 1-.466-.027c-.202-.07-.382-.035-.529 0 0 0-.626.167-.667 1.015l-.251 2.039s-.132.793-.062.946c0 0 .069.32.64.125 0 0 .487-.146.542-.981 0 0 .139-1.628.369-1.948 0 0 .278-.522.668-.737 0 0 .563-.272.556.188l-.202 1.864s-.201.918.216 1.064c0 0 .049.021-.055.077 0 0-2.686 1.14-6.143 3.068.236-1.962.64-4.69.64-4.69.063-.444-.487-.444-.487-.444-.529-.014-.605.605-.647.876-.042.272-.445 2.484-.445 2.484-.181 1.002-.779.953-.779.953-.592.07-.237-1.524-.237-1.524.16-.57.209-1.05.661-1.433.438-.368.48-.855.153-.87-.55-.027-1.12.564-1.12.564-.981.967-.981 3.318-.981 3.318-.021.745.487.967.487.967.626.286 1.482-.215 1.482-.215.202-.14.174.055.174.055l-.042.599c-2.539 1.468-5.357 3.297-7.791 5.356 0 0-1.113.821-.703 1.364.445.57 1.057.048 1.308-.181 0 0 2.49-2.553 7.096-5.42l-.146 1.92c-.063.87-.341 3.549-.341 3.549-.133 1.057.041 1.259.097 1.335.097.118.508.466.967.167.57-.362.285-1.245.195-1.656-.098-.417-.084-1.092-.084-1.092.042-.556.362-4.285.362-4.285a6.2 6.2 0 0 1 .049-.605 51.493 51.493 0 0 1 6.052-3.054s.981-.39 1.816-.647c0 0 .278-.111.626-.216.473-.132 1.078-.348 1.259-.605a.533.533 0 0 0 .014-.591l.007.02Z"/></svg>