<svg width="32" height="32" fill="none" xmlns="http://www.w3.org/2000/svg"><g clip-path="url(#youtubesvg)" fill="#fff"><path d="M13.914 12.758v6.384l5.53-3.192-5.53-3.192Z"/><path fill-rule="evenodd" clip-rule="evenodd" d="M32 16c0 8.837-7.163 16-16 16S0 24.837 0 16 7.163 0 16 0s16 7.163 16 16Zm-7.64-7.055a2.665 2.665 0 0 1 1.882 1.882h-.001c.445 1.66.445 5.123.445 5.123s0 3.464-.445 5.123a2.666 2.666 0 0 1-1.882 1.882c-1.66.445-8.316.445-8.316.445s-6.657 0-8.316-.445a2.666 2.666 0 0 1-1.882-1.882C5.4 19.413 5.4 15.95 5.4 15.95s0-3.464.445-5.123a2.666 2.666 0 0 1 1.882-1.882c1.66-.445 8.316-.445 8.316-.445s6.657 0 8.318.445Z"/></g><defs><clipPath id="youtubesvg"><path fill="#fff" d="M0 0h32v32H0z"/></clipPath></defs></svg>