<svg width="24" height="24" viewBox="0 0 24 24" fill="none" xmlns="http://www.w3.org/2000/svg"><path d="M21.0036 18.5027V20.0033C21.0036 20.5556 20.5554 21.0037 20.0032 21.0037H18.0023C17.4501 21.0037 17.0019 20.5556 17.0019 20.0033V18.5027M21.0036 18.5027V13.7437C21.0036 12.9474 20.6875 12.1841 20.1242 11.6208L19.0028 10.4994M21.0036 18.5027H2.99609M6.99776 18.5027V20.0033C6.99776 20.5556 6.54957 21.0037 5.99734 21.0037H3.99651C3.44428 21.0037 2.99609 20.5556 2.99609 20.0033V18.5027M2.99609 18.5027V13.7437C2.99609 12.9474 3.31223 12.1841 3.87546 11.6218L4.99693 10.4994M4.99693 10.4994H19.0028M4.99693 10.4994V9.99315L5.83328 6.85484C6.1244 5.75939 7.11681 4.99707 8.24928 4.99707H15.8364C16.9939 4.99707 18.0003 5.7914 18.2695 6.91787L19.0028 9.99315V10.4994M21.0036 14.501L18.0023 14.7511M5.99734 14.7511L2.99609 14.501M7.99818 18.5027L8.99859 15.5014H15.0011L16.0015 18.5027M21.0036 9.49894L19.0028 9.99915M4.99693 9.99915L2.99609 9.49894" stroke="currentColor" stroke-width="1.5" stroke-linecap="round" stroke-linejoin="round"/></svg>