<svg width="32" height="32" fill="none" xmlns="http://www.w3.org/2000/svg"><g clip-path="url(#instagramsvg)" fill="#fff"><path d="M13.225 14.153a3.333 3.333 0 1 0 5.55 3.693 3.333 3.333 0 0 0-5.55-3.693Z"/><path fill-rule="evenodd" clip-rule="evenodd" d="M10.118 23.808c.353.135.882.297 1.857.34 1.055.045 1.37.056 4.04.05 2.67-.006 2.987-.016 4.041-.066.974-.046 1.504-.21 1.856-.347.466-.183.799-.4 1.148-.75a3.1 3.1 0 0 0 .746-1.152c.136-.353.298-.882.34-1.857.047-1.054.056-1.371.051-4.04-.005-2.67-.016-2.986-.066-4.04-.046-.976-.21-1.504-.348-1.856a3.086 3.086 0 0 0-.75-1.149 3.092 3.092 0 0 0-1.151-.745c-.353-.137-.883-.298-1.857-.34-1.055-.047-1.372-.057-4.041-.051-2.67.006-2.986.016-4.04.066-.975.046-1.504.21-1.856.347-.467.183-.8.4-1.149.75a3.097 3.097 0 0 0-.745 1.152c-.136.353-.299.883-.34 1.857-.047 1.054-.057 1.37-.051 4.04.006 2.67.016 2.986.066 4.04.045.975.21 1.504.347 1.856.183.467.399.8.75 1.149.352.348.685.566 1.152.746Zm10.213-12.486a1.2 1.2 0 1 1 1.993-1.337 1.2 1.2 0 0 1-1.993 1.337Zm-4.321 9.812a5.134 5.134 0 1 1-.02-10.268 5.134 5.134 0 0 1 .02 10.268Z"/><path fill-rule="evenodd" clip-rule="evenodd" d="M32 16c0 8.837-7.163 16-16 16S0 24.837 0 16 7.163 0 16 0s16 7.163 16 16ZM9.433 6.54c.635-.25 1.361-.42 2.425-.47 1.067-.052 1.407-.064 4.123-.069 2.716-.005 3.058.007 4.123.053 1.064.046 1.791.214 2.427.46a4.88 4.88 0 0 1 1.774 1.15 4.91 4.91 0 0 1 1.156 1.768c.25.636.419 1.36.47 2.427.05 1.066.062 1.407.068 4.122.005 2.715-.006 3.056-.053 4.123-.046 1.064-.213 1.791-.46 2.427a4.9 4.9 0 0 1-1.15 1.774c-.554.557-1.111.9-1.768 1.157-.636.248-1.359.418-2.425.469-1.067.05-1.409.063-4.123.068-2.715.005-3.058-.006-4.122-.052-1.065-.047-1.792-.215-2.428-.46a4.894 4.894 0 0 1-1.774-1.15 4.899 4.899 0 0 1-1.156-1.77c-.25-.635-.42-1.361-.47-2.425-.052-1.067-.064-1.407-.069-4.123-.005-2.715.005-3.058.052-4.122.047-1.065.214-1.792.46-2.429a4.898 4.898 0 0 1 1.15-1.772 4.894 4.894 0 0 1 1.77-1.156Z"/></g><defs><clipPath id="instagramsvg"><path fill="#fff" d="M0 0h32v32H0z"/></clipPath></defs></svg>