<svg xmlns="http://www.w3.org/2000/svg" viewBox="0 0 46 46"><defs><style>.middle-east-icon_svg__cls-1{fill:#bababa}</style></defs><g id="middle-east-icon_svg__Layer_1"><path d="M44.7 22.4c0-.1-.2-.2-.4-.2h-.4v-.7c0-.3-.1-.6 0-.9 0-.1 0-.2-.2-.2h-.2q-.3-.3-.6-.3c-.4 0-.6-.4-.8-.7-.1-.2-.2-.4-.3-.5v-.1c0-.1 0-.2-.2-.3-.2-.2-.4-.4-.6-.7l.1-.1c.4-.5.8-.9 1.2-1.4 0 0 .1-.2.1-.3v-.6q0-.15-.3-.3c-.3 0-.6 0-1-.1-.1 0-.2 0-.1-.2v-1.3c0-.4-.2-.8-.3-1.1V12c.1-.1.3-.3.4-.5v-.2h-.3c-.2 0-.2-.1-.2-.2v-.4c0-.3 0-.5.4-.5.1 0 .1 0 0-.2 0 0-.1-.2-.2-.2.1-.2.3-.4.4-.6v-.8s0-.2.1-.3v-.6c0-.1-.1-.2-.1-.4v-1c0-.1 0-.2-.2-.2h-.8c-.2 0-.3 0-.3-.2-.2-.4-.5-.7-.9-.8-.2-.1-.3-.2-.3-.4 0 0 0-.2-.1-.2-.2 0-.3-.2-.5-.2h-1c-.1 0-.3-.2-.4-.3-.2 0-.5-.1-.7-.2-.1 0-.2 0-.2-.2s-.2-.3-.4-.3h-1c-.1 0-.2 0-.3.2 0 0 0 .1-.1 0h-.9c-.6.2-1 .4-1.2 1l-.2.2h-.3c-.2 0-.4.1-.6.1s-.2 0-.2.2 0 .4.1.5h-.4c-.7.2-1.4.4-2.1.5h-.8c-.6-.1-1.1-.2-1.6-.6-.2-.2-.5-.3-.6-.6 0-.1-.1-.2-.3-.2-.3 0-.5 0-.8-.1-.3 0-.6-.2-.7-.5 0-.3-.1-.7-.2-1 0-.3 0-.3-.3-.2h-.2c0-.1-.2-.3-.4-.3l-.2-.2-.2-.1c.1 0 .2 0 .3-.1 0 0 .1 0 .1-.2v-.2h-.1v-.2q.3-.15 0-.3l-.3-.3c-.2-.3-.4-.2-.6 0-.4.3-.8.5-1.1.8-.2 0-.2.1-.3.2q-.15.3-.6.3h-.8c-.2 0-.3-.1-.4-.3 0 0-.2-.2-.3-.2-.1-.2-.2-.3-.3-.5s-.3-.4-.5-.5h-.1s-.2.2-.2.3v.3s0 .1-.1.1h-.3s-.1 0-.1.1.1.3.2.4v1.2c0 .2 0 .3.2.3 0 .2-.2.4-.3.6v.4c.1 0 .3.1.4.2V5c.2.2.2.1.2.3-.2.1-.4.3-.6.4v-.3c0-.1 0-.2-.2-.3h-.6c-.2 0-.3 0-.5-.1-.2 0-.5-.2-.7 0h-.4c0 .1-.2.2-.3.3h-.2s0-.1-.1-.2c0-.1-.2-.1-.3 0l-.1.1c-.5.2-.9.3-1.4.2h-.7c-.3.1-.5.3-.8.4-.4.2-.9.3-1.3.3-.3 0-.7 0-1-.3-.1 0-.3-.1-.5 0-.3 0-.7.2-1 .4h-.6C5.5 6 5.3 6 5.1 6h-.2c0 .3-.2.6 0 .9-.2 0-.4 0-.4.3 0 0-.2.1-.3.2-.2-.1-.3 0-.4.2v.7c.1.2.2.4.1.6 0 .3 0 .7.1 1v.2s-.2.1-.2.2c-.1.1-.2.3-.2.5v.2c-.2.5-.5 1.1-.7 1.6-.2.4-.3.8-.4 1.2-.2.7-.4 1.3-.9 1.8v.1c.2.5.3 1 .5 1.5s.3 1 .5 1.5v.1c.1.1.1.3 0 .4 0 .3-.1.6-.2.8 0 .3-.1.6-.2.8v.2s0 .1.1 0h.5s.2 0 .2.1c.1.2.3.4.4.6s.2.4.4.6v.1l.6.9c0 .1.2.2.2.3 0 .2.2.3.3.5l.2.2c0 .2.2.4.3.6.2.2.3.6.5.8v.6c.1.2.2.4.4.6 0 .2.2.3.4.3.2.1.3.2.5.3.2.2.5.4.6.6.2.3.4.6.5 1l.3.6v.5c0 .4-.2.7 0 1.1v.5c.1.2.3.5.4.7s.2.3.3.5c.2.3.4.5.7.5h.1c.2.2.5.3.7.6 0 0 .1 0 .2.1l.1.1v.2c.1.2.3.4.4.7 0 .2.1.4.2.6v.2c0 .1.2.2.2.3.2.5.4.9.9 1.2.2.1.4.3.5.6 0 .1.1.2.2.3.1.2.2.4.4.5v1.2c0 .2-.1.4 0 .7v.1h-.1l-.1-.1s0 .1-.1.2v.2c.2 0 .2.1.4.2l.1.1c0 .2 0 .4.1.5 0 .2 0 .4.1.6v.3c0 .1 0 .2.1.3 0 0 .1.2.2.3v.9c.1.2.3.4.3.7h.8c.3 0 .6 0 .8-.2h.6c.1 0 .2 0 .2-.2 0 0 .1-.2.2-.2.2 0 .3-.1.4-.3 0-.1.2-.2.4-.2h1.6c.2 0 .4-.1.6-.2.1 0 .2 0 .3-.1.2-.2.4-.3.6-.4h.4c.3 0 .6 0 .8-.2.2-.1.3-.3.4-.5l.1-.1c.4-.3.9-.4 1.4-.5h.3c.2 0 .4-.2.6-.3.4-.1.8-.2 1.1-.3.4-.1.7-.3 1.1-.5.2-.1.2-.2.2-.4v-.3c0-.3.3-.6.6-.7.4-.1.8-.4 1.2-.5h.2c.2 0 .4-.2.6-.3h.9c.3 0 .6-.1.7-.4v-.4c.1-.2.2-.4.5-.5h.7c.3 0 .7-.3.7-.6v-.3s0-.1.1-.2c.2-.3.5-.4.9-.4h.5c.3 0 .3-.1.3-.4 0-.5-.2-1 0-1.5 0-.3.2-.4.4-.6v.2c0 .1.4 0 .5 0 0-.2.2-.3.3-.5.2-.4.5-.8.9-1 .1 0 .2-.2.3-.3.2-.3.3-.6.5-.9 0-.1.1-.2.1-.3 0-.3 0-.3-.3-.4-.2 0-.3-.1-.4-.2l-.6-.9c0-.1-.2-.3-.3-.4s-.3-.3-.5-.2h-1.3c-.4-.1-.8-.2-1-.5-.1-.1-.2-.3-.3-.4-.1-.2-.3-.4-.4-.6v-2.4h-.1l-.1.1c-.1 0-.3.2-.3.3 0 .2 0 .3-.2.4-.3.2-.6.5-.8.7-.2.3-.5.5-.8.7 0 0-.2.1-.2.2s-.2.3-.3.4q-.15-.15-.3 0c0 .2.1.2.2.3-.2.1-.5.2-.6.3-.1 0-.2-.2-.3-.2-.2 0-.3 0-.4.3h-.6c-.4 0-.8 0-1.2.2-.1 0-.3.1-.5 0-.2 0-.2 0-.3-.2 0-.1 0-.2-.2-.2 0-.1-.1 0-.2 0h-.3s.2-.2.1-.3c0-.2 0-.3.1-.5.2-.3.1-.5 0-.8v-1.1l-.3-.3h-.1c-.2 0-.4.2-.5.4 0 .3-.2.5-.3.8v.8c-.1-.2-.3-.3-.3-.5s0-.3-.2-.4c-.3-.2-.3-.6-.5-.9.2 0 .2-.2.2-.3 0-.2 0-.3-.1-.4 0 0 0-.1-.1-.2h.2V24c-.1-.2-.3-.3-.4-.4 0 0-.2-.1-.2-.2 0 0-.1-.2-.2-.2-.2 0-.3-.2-.4-.3.1-.2 0-.2-.2-.2-.1 0-.3-.1-.4-.2 0-.2 0-.3-.1-.5 0-.2-.2-.3-.3-.5-.2-.3-.3-.6-.5-1 0-.2-.2-.4-.2-.6v-.1s-.1-.2-.2-.1H21l.1-.1s.2-.2.3 0h.1c.3-.1.4-.2.2-.6h.4c0-.2.1-.2.2-.2q.3 0 .3-.3v-.2c.1 0 .2.1.3.2.2.1.3.2.5.3h.2c.2 0 .3-.1.5-.2h.2c0 .1 0 .3.1.4.2.2.3.4.5.6.1.1.2.2.2.4s0 .2.2.3l.1.1c0 .2 0 .3.2.4l.2.2c0 .5.3.8.6 1.2.2.2.3.3.6.2h.4c.2 0 .3.2.5.2s.3.2.3.3c0 0 .1.2.2.2.2.2.5.3.8.5 0 0 .2.1.2.2.2.2.4.4.7.3.4 0 .7 0 1 .3.1 0 .2.1.4 0 .2 0 .3-.2.5-.3 0 0 .2-.1.3-.1.2 0 .3 0 .4-.2 0 0 .1-.1.3-.2.1 0 .3 0 .4-.1.3-.2.5-.2.8-.2.2 0 .4.2.5.4 0 .1.1.3.1.5s0 .5.2.7v.2c0 .2.1.3.2.5h.1c.3 0 .5.2.8.2.2.1.5.2.8.1.2 0 .5 0 .7.2.2.1.3.1.5 0h.4c.2 0 .4.1.6.1h.5c.2 0 .3 0 .4-.1 0 0 .1.2.2.2.3.1.7.2 1 .3h.2c.2-.1.4-.2.3-.5v-1.3s0-.1.1-.2c.1 0 .3-.1.5-.2v-.1s.1-.2.2-.2c.3 0 .6-.2.9-.1.1 0 .2 0 .2-.2s.2-.3.1-.5v-.2ZM31.5 45.5c-.3-.1-.6-.2-.9-.1H30l-.2.2v.2c.1 0 .2.1.3.2 0 0 .2 0 .3.1q.6 0 1.2-.3v-.1Z" class="middle-east-icon_svg__cls-1"/><path d="M32.6 23.4s0 .2.2.2c.1 0 .3 0 .4-.1.1 0 .3-.1.4 0h.2s.1-.2.2-.2h.1c-.1-.1-.3 0-.4 0h-.4c-.1 0-.2 0-.1.1v.1c-.2 0-.4.1-.6.2ZM13 39v-.3h-.2c0 .1 0 .2-.1.2 0 .1.2.3.4.3h.4v-.3s-.1-.2-.3-.2Zm25-6.1c0 .1-.2.3-.3.4 0 0 0 .1-.1.2 0 0 0 .2.1.2h.2c0-.1.1-.2.2-.3v-.3Zm-12.4-8.1h.2v-.7c-.2 0-.3 0-.2.3v.2c0 .2 0 .3.1.4Zm-20.2.5c-.2-.1-.3-.2-.5-.3v-.4h-.1v.2c0 .2 0 .2.1.3.1 0 .2.1.3.2zv-.1ZM29.9 27s-.2.1-.3.2c-.1 0-.1.1 0 .2h.1c.2 0 .3 0 .3-.2V27zM14.1 43.5l.2-.1s-.1-.2-.2-.2c0 0-.1 0-.2.1 0 0 .1.1.2.1Zm-.2.4s.2-.1.3-.2H14s-.2.1-.2.2Zm14.6-16.7s.1.1.1.2c0 0 .1 0 .1-.2 0 0 0-.1-.1-.1l-.2.1Z" class="middle-east-icon_svg__cls-1"/></g></svg>