<svg width="24" height="24" viewBox="0 0 24 24" fill="none" xmlns="http://www.w3.org/2000/svg">
<path d="M8.7501 8.2499C8.7501 8.38802 8.63813 8.5 8.5 8.5C8.36187 8.5 8.2499 8.38802 8.2499 8.2499C8.2499 8.11177 8.36187 7.99979 8.5 7.99979M9.73 5H7C5.895 5 5 5.895 5 7V9.73C5 10.26 5.211 10.769 5.586 11.144L12.976 18.534C13.596 19.154 14.602 19.154 15.222 18.534L18.535 15.221C19.155 14.601 19.155 13.595 18.535 12.975L11.145 5.585C10.77 5.211 10.261 5 9.73 5Z" stroke="currentColor" stroke-width="1.5" stroke-linecap="round" stroke-linejoin="round"/>
</svg>