<svg width="24" height="24" viewBox="0 0 24 24" fill="none" xmlns="http://www.w3.org/2000/svg"><path d="M8.2 11.8333V14.1667M10.6 11.8333V14.1667M8.2 13H10.6M8.6 9.11111V5.77778C8.6 5.34822 8.24183 5 7.8 5H2.4C1.95817 5 1.6 5.34822 1.6 5.77778V20H8.6M14 20H1M1.6 10.6667H3.2M1.6 13H3.2M1.6 15.3333H3.2M15.4 13.42L16.2 14L16.8286 13.3785C16.9429 13.2655 17 13.096 17 12.9266L16.8857 11.6836L18.8286 9.76271L20.3143 13.548C20.4286 13.887 20.9429 14 21.2286 13.7175L21.6286 13.322C21.8 13.209 21.8572 12.9831 21.8 12.8136L20.7715 7.78531L22.6572 5.9209C23.1143 5.46893 23.1143 4.79096 22.6572 4.33898C22.2 3.88701 21.5143 3.88701 21.0572 4.33898L19.1715 6.20339L14.0857 5.18644C13.9143 5.18644 13.6857 5.24294 13.5715 5.35593L13.1715 5.75141C12.8857 6.0339 13 6.48588 13.3429 6.65537L17.2286 8.12429L15.2857 10.0452M6.2 9.11111H12.6C13.0418 9.11111 13.4 9.45933 13.4 9.88889V20H5.4V9.88889C5.4 9.45933 5.75817 9.11111 6.2 9.11111ZM8.2 16.8889H10.6V20H8.2V16.8889Z" stroke="currentColor" stroke-width="1.5" stroke-linecap="round" stroke-linejoin="round"/></svg>