<svg width="24" height="24" viewBox="0 0 24 24" fill="none" xmlns="http://www.w3.org/2000/svg">
<path d="M18.556 16.223L16.611 18.168L15.444 17.001M9 18H6C4.343 18 3 16.657 3 15V6C3 4.343 4.343 3 6 3H18C19.657 3 21 4.343 21 6V10M7 11.5H10M7 7H16M12.275 17.814L12.939 18.683L13.083 19.764C13.163 20.364 13.634 20.836 14.234 20.916L15.318 21.061L16.186 21.725C16.666 22.092 17.333 22.092 17.813 21.725L18.682 21.061L19.763 20.917C20.363 20.837 20.835 20.366 20.915 19.766L21.06 18.682C21.06 18.683 21.396 18.243 21.724 17.814C22.091 17.334 22.091 16.667 21.724 16.187L21.06 15.318L20.916 14.237C20.836 13.637 20.365 13.165 19.765 13.085L18.681 12.94L17.813 12.276C17.333 11.909 16.666 11.909 16.186 12.276L15.317 12.94L14.236 13.084C13.636 13.164 13.164 13.635 13.084 14.235L12.939 15.319C12.939 15.318 12.603 15.758 12.275 16.187C11.908 16.667 11.908 17.333 12.275 17.814Z" stroke="currentColor" stroke-width="1.5" stroke-linecap="round" stroke-linejoin="round"/>
</svg>