<svg xmlns="http://www.w3.org/2000/svg" id="canada-icon_svg__Layer_1" viewBox="0 0 100 100"><defs><style>.canada-icon_svg__cls-1{fill:#b8bbbe;stroke:#b8bbbe;stroke-miterlimit:10;stroke-width:.1px}</style></defs><path d="M50.49 46.89c.02 1.27-.5 1.41-.97 1.63-.43.19-.66.84-1.29.58q-1.57.4-2.69-.5c-.12.48-.15.87.27 1.27.63.6.59.76.02 1.59-.21.3-.39.64-.65.89-.67.68-.91 1.52-1.03 2.43-.1.83-.34 1.64-.25 2.49.02.17-.03.35.01.52.03.11.16.24.27.26s.25-.07.36-.13c.07-.04.12-.13.19-.18.21-.14.42-.17.46.13.1.61.22 1.2.7 1.66.09.09.08.31.08.48v1.8c.34-.2.64-.36.92-.54.52-.35.91-.36 1.33.06.54.54 1.07 1 1.92 1.03.45.01.91.38 1.21.8.28.39.64.52 1.11.47.34-.04.69.01 1.04-.01.36-.03.56.03.54.47-.01.17.2.35.24.54.08.4.27.36.52.17.53-.41 1.15-.42 1.78-.4 1.03.05 1.27.35.93 1.29-.11.31-.17.52.02.81.1.16.11.39.12.59.02.34.15.81-.02 1.01-.44.54.22.58.29.87.08.31.14.63.27.92.05.1.28.11.37.22.31.33.79.57.65 1.15-.05.24.03.37.32.4.76.09.75.12 1.54.93.07.07.23.06.34.09 0-.09 0-.19-.03-.27-.16-.54-.27-1.05.24-1.5.37-.33.28-.88.13-1.2-.45-.98-.69-2.09-1.52-2.88-.2-.19-.3-.48-.47-.71-.49-.7-.42-.96.41-1.2.59-.17 1.23-.19 1.4-.95.04-.19.23-.38.21-.55-.12-1.01.53-1.42 1.36-1.77-.16-.04-.27-.09-.39-.1-.66-.06-.9-.28-.67-.8.22-.49.41-1.05.16-1.42-.34-.5-.77-.98-1.41-1.23-.65-.25-1.25-.61-1.73-1.17-.22-.26-.21-.42.02-.64.29-.26.58-.53.82-.83.14-.18.27-.44.26-.65 0-.17-.22-.33-.34-.5-.07-.1-.1-.22-.16-.32-.17-.28-.45-.54-.48-.83-.03-.22.24-.49.39-.73.19-.31.11-.4-.24-.5-1.01-.28-1.18-.69-.74-1.64.23-.49.3-1.04.98-1.28.97-.35 1.29-.23 1.38.8 0 .08.03.16.07.38.27-.27.52-.46.7-.71.3-.42.72-.37 1.14-.39.36-.01.64.2.66.47.08 1 .83 1 1.51 1.09.34.05.69 0 1.04 0 1.12.01 1.74.7 1.28 1.7-.29.62.05.57.32.75.11.07.2.17.28.27.25.33.43.74.75.97.31.22.76.24 1.12.4.18.08.57 0 .48.42 0 .03.1.08.15.13.19-.41.72-.42.94-.88.21-.44.27-.76.06-1.16-.11-.21-.32-.41-.35-.63-.05-.36-.23-.86.23-1.03.52-.19.57-.51.52-.95-.02-.13 0-.26 0-.39.01-.3.37-.53.6-.36.18.14.31.36.43.57.44.77.75 1.63 1.67 2.02.3.13.51.46.74.72.59.67 1.28 1.18 2.08 1.56.29.14.56.34.8.55.09.08.17.36.11.42-.45.52-.23.6.32.64.34.03.7.19 1.01.37.48.27.98.34 1.52.42.73.11 1.39.21 2.02-.28.08-.06.25 0 .38-.01.38-.05.49.09.52.49.04.74.37 1.01.92.74.33-.17.45-.12.75.03.43.22.82.41.9.92.04.21 0 .38.31.43.65.1.83.56.74 1.17-.07.48.06.72.61.66.13-.01.39.26.41.42.09.81.67 1.51.55 2.38-.01.09.11.19.17.29.11-.08.25-.15.34-.26.13-.16.23-.34.43-.64.34.43.65.82.99 1.24.46-.72.86-1.33 1.3-2.02.27.43.63.74.63 1.04-.01.5.24.72.59.77.48.07.44.53.71.74.22.17.42.33.55-.08.02-.08.03-.18.08-.22.16-.12.41-.34.5-.29.19.1.4.34.43.54.05.33.07.63.26.94.19.29.21.69.35 1.02.28.66.27.96-.07 1.24-.59.47-1.16.51-1.68.13-.1-.07-.18-.17-.27-.25-.04.08-.11.15-.12.22 0 .42.09.89-.46 1.07-.47.15-.7-.23-.95-.5-.16-.18-.29-.39-.41-.61-.14-.25-.3-.24-.5-.08-.81.64-1.64 1.28-2.44 1.93-.43.35-.87.61-1.46.56-.57-.04-1.05-.45-1.04-1.02 0-.4 0-.78.2-1.21.27-.59-.17-1.27-.33-1.9-.22-.88-.2-1.74-.02-2.61.07-.31.12-.63.23-1.18-.38.31-.58.61-.79.62-.59.04-.27.65-.59.82.2.69-.27 1.3-.27 1.97 0 .2-.01.46-.13.58-.16.15-.44.29-.65.27-.67-.08-1.09.22-1.57.64-.4.35-1 .49-1.53.67-.88.29-1.8.46-2.65.81-.54.22-1.04.52-1.33 1.18-.44 1.03-1.07 1.98-1.62 2.96-.07.13-.09.28.04.52.29-.37.57-.75.88-1.11.63-.74 1.27-1.45 2.12-1.96.51-.3 1.01-.34 1.56-.32.66.03 1.01.73.62 1.26-.2.27-.47.5-.73.74-.16.14-.6.03-.44.43.05.11.38.08.54.17.11.07.2.24.2.38 0 .3.06.55.24.82.11.17.1.38.38.35.77-.09 1.29.19 1.54.96.05.15.31.28.5.32 1.14.29 1.28.24 2.16-.52.12-.1.27-.22.41-.24.15-.02.32.07.48.11-.09-.18-.19-.35-.26-.54-.35-1.06-.34-1.26.05-1.84.27-.41.7-.46 1.07-.13.58.51.87 1.19.67 1.91-.26.92-.18 1.98-1.01 2.69-.06.67-.66.8-1.1 1.07-.23.15-.52.21-.76.35-.52.28-.62.45-.35 1 .21.43.17.69-.16.99-.32.29-.64.59-.91.92-.3.36-.64.49-1.11.47-1.07-.03-1.63-.78-1.22-1.77.2-.48.53-.91.82-1.35.11-.17.28-.31.39-.49.36-.57.35-.58-.09-1.04-.18-.19-.37-.37-.66-.66.12 1.01-.32 1.72-.77 2.46-.25.42-.68.44-.96.73-.04.04-.4-.11-.5-.26-.58-.83-1.18-1.66-1.66-2.55-.22-.42-.45-.56-.87-.54-.21 0-.49.05-.61-.06-.27-.24-.61-.32-.78-.11-.15.18-.19.63-.07.84.26.48.23.96.23 1.46 0 1.22-.88 2.41-2.08 2.8-.31.1-.61.21-.93.25-.3.04-.6.03-.91 0-1.02-.06-1.73.33-2.18 1.28-.42.89-1.08 1.52-2.05 1.85-.36.12-.91.32-.68.97.05.15 0 .33 0 .55-1.14.05-2.36-.26-3.08.94.18.09.37.16.53.28.33.26.31.59.06.88-.36.41-.79.78-1.37.75-.76-.05-1.33.36-1.9.74-.78.51-1.6.92-2.49 1.2-.19.06-.29.12-.37-.05-.1-.22-.15-.46-.2-.7-.04-.24.16-.29.29-.43.53-.55.97-1.2 1.41-1.83.11-.15.1-.4.1-.6.01-.43.04-.87 0-1.3-.04-.36-.23-.71-.23-1.06-.01-.49-.24-1.18.37-1.36.66-.2.61.62.91.96.07.08.11.17.16.25.09-.09.25-.18.26-.28.05-.46.1-.93.06-1.38-.01-.14-.3-.35-.47-.36-.42-.03-.87-.06-1.25.08-.59.21-1.1.25-1.68-.01-.25-.11-.58-.05-.87-.09-1.28-.17-2.15-1.14-2.18-2.42v-.7c-1.29.16-1.94-.68-2.59-1.51-.1-.13-.14-.31-.25-.41-.29-.23-.43-.66-.89-.67-.17 0-1.03.52-1.2.74-.17.23-.35.46-.52.69-.57.79-1.28.72-2.13.49-.63-.17-1.24-.35-1.82-.63-.71-.34-1.48-.27-2.23-.25-.83.02-1.48-.3-1.84-1.02-.17-.35-.28-.35-.53-.16-.91.66-1.99.51-2.94.34-.82-.14-1.67-.29-2.48-.55-.8-.26-1.59-.55-2.38-.82-.64-.22-1.32-.27-1.96-.6-.55-.28-1.23-.33-1.85-.53-.53-.17-1.13-.06-1.71-.26-1.03-.36-2.15-.44-3.15-.85-.67-.27-1.4-.28-2.06-.66-.61-.35-1.42-.32-2.07-.62-.66-.31-1.37-.44-2.03-.75-1.05-.49-2.21-.69-3.23-1.29-.34-.2-.75-.26-1.13-.4-.94-.36-1.72-.92-2.45-1.63-.67-.66-1.44-1.27-2.26-1.73-.75-.43-1.66-.61-2.51-.28-.73.28-1.2.09-1.8-.38-.83-.66-1.1-1.6-1.3-2.45-.34-1.44-.74-2.91-.59-4.44.04-.41.08-.72.53-.88.39-.13.43-.54.51-.87.24-1.06.39-2.15.99-3.09.12-.19.12-.41-.21-.43-.04 0-.1.01-.12 0-.22-.21-.6-.43-.6-.64 0-.27.29-.57.51-.8.72-.75 1.43-1.5 2.21-2.19.39-.35.4-.74.33-1.16-.05-.31-.19-.62-.36-.88-.52-.8-.54-1.6-.15-2.45.23-.5.31-1.02.27-1.58s0-1.12-.01-1.68c-.02-.51.45-.92.26-1.45-.05-.14-.14-.26-.21-.38-.1.1-.26.18-.3.29-.11.4-.48.27-.63.21-.6-.27-1.01-.76-1.2-1.4-.3-1.02-.22-1.93.9-2.62-.49-.15-.87-.24-1.23-.38-.5-.19-.56-.67-.26-1.12.23-.35.71-.32.87-.78.13-.36.5-.64.94-.77.22-.07.37-.35.56-.53 1.16-1.16 2.31-2.33 3.49-3.48.47-.46.99-.87 1.47-1.32.51-.47 1.02-.94 1.52-1.42s.98-.98 1.47-1.47.96-1 1.47-1.46c.4-.36.84-.68 1.27-1.01.05-.04.18.01.27.04.72.18.94.74 1 1.37.05.6-.02 1.21.02 1.81.02.31.16.62.25.93.01.04.11.06.18.07.02 0 .07-.06.07-.09.01-.09 0-.17 0-.26-.04-.83.71-.85 1.19-1.13.08-.05.33.08.42.18.16.18.24.42.38.61.08.11.22.33.36.07.43-.79.96.06 1.43-.09.02 0 .11.13.11.2-.04.77.25.55.73.32.45-.22 1.01-.23 1.53-.33.23 1.14.08 2.13-.32 3.17.28-.28.56-.57.85-.84.31-.29.79-.15.84.26.05.42.01.85.01 1.35.34 0 .65.05.93-.01.5-.11.72.21.77.56.14 1 .83 1.6 1.48 2.24.37.36.73.74 1.27 1.28-.1-.38-.11-.57-.19-.72-.35-.63-.4-1.44-1.09-1.89-.17-.11.11-.64.36-.68.21-.03.43 0 .65 0h2.51c-.92-.37-1.63-.63-2.3-.95-.17-.08-.56.03-.51-.41.04-.34-.03-.7.33-.9.14-.08.32-.09.43-.19.12-.1.4-.17.11-.46-.3-.31-.49-.73-.77-1.17-.25.17-.58.36-.87.6s-.5.1-.62-.13c-.22-.42-.38-.87-.57-1.31-.48.12-.9-.11-1.3-.3-.4-.18-.38-.48 0-.72.63-.4.58-.44 1.2-1.42.45-.72.62-1.62 1.35-2.17.16-.12.33-.27.52-.31.4-.09.76.03.96.42.24.46.34 1.14.71 1.33.44.23 1.09.05 1.66.06.04 0 .08.01.15.02.18 1.39.97 2.53 1.64 3.71.26.46.64.87 1 1.27.26.29.57.26.88 0 .37-.31.51-.74.71-1.14.14-.27.28-.5.64-.5s.55.2.65.49c.2.57.37 1.15.52 1.73.27 1.01.52 2.03.78 3.05.18.71.22 1.48.55 2.1.58 1.13.05 2.05-.54 2.82-.74.95-1.26.91-2.11.02-.38-.4-.59-.98-.95-1.41-.2-.24.19-.72-.29-.71-.23 0-.47.31-.69.49-.97.79-2.07 1.22-3.33 1.01-.5-.08-.97-.37-1.43-.61-.18-.09-.23-.19-.31.08-.06.19-.23.33-.33.51-.05.08-.1.23-.06.26.21.2.43.49.68.53 1.79.33 2.34 1.17 3.16 2.03.02.02.06.03.11.05.25-.48.08-.9-.38-.99-.48-.1-.25-.56-.53-.71.26-.2.5-.55.79-.58.51-.07.96-.04 1.37-.49.28-.31 1.09.26 1.17.8.03.17.02.35 0 .52-.03.31.07.39.4.47.69.18 1.34.49 1.98.85.65.36.88 1.02 1.5 1.57v-1.68c-.01-.45.17-.73.63-.76.29-.02.58-.01.18-.35-.34-.3-.42-.6-.13-.98.12-.16.19-.35.28-.53.38-.72.38-.71 1.26-.48.1.03.35-.12.36-.2.04-.38.05-.78.01-1.16-.1-1.06.13-1.99 1.05-2.63q-.52-.59-.59-1.75c-.39.7-.77 1.25-.73 2.02.03.49-.33.84-.8 1.07-.53.25-1.03.04-1.38-.24-.26-.21-.36-.73-.37-1.11 0-.45-.19-.8-.4-1.14-.48-.79-.51-.95.02-1.6.29-.35.68-.59.68-1.16 0-.18.49-.37.77-.55.35-.22.87.11 1.17-.33.02-.03.25.04.32.12.28.31.58.61.78.97.16.29.22.14.33.01.06-.08.15-.24.13-.26-.68-.61-1.16-1.48-2.17-1.63-.44-.07-.66-.33-.6-.79.04-.33-.03-.73.12-.98.34-.55-.09-.63-.38-.82l-.52-.52c0-.09.02-.18 0-.26-.29-.85-.25-.91.64-1.04.14-.02.38-.13.38-.19-.02-.95.81-.73 1.38-.92-.42-.24-.66-.46-.9-.82-.56-.85-.56-1.85-.96-2.72-.2-.43.28-.66.52-.93.19-.21.36.01.53.03 1.12.12 1.31.98 1.5 1.82.07.33.13.47.47.32.15-.07.29-.19.44-.19.36.01.74-.12 1.07.23.39.41-.25.56-.16.89.04.13-.08.3-.15.45-.18.39-.21.6.32.84.51.22.8.93 1.53.69.14-.04.29-.1.38-.21.35-.41.67-.83 1.03-1.29-.37-.04-.68-.07-1.08.09-.87.35-1.49-.12-1.5-1.05-.01-.83-.12-1.59-.46-2.4-.46-1.11-.81-2.35-.5-3.72.31.04.68 0 .93.15.43.26.71.71.8 1.21.16.85.56 1.4 1.75 1.57-.27-.27-.36-.37-.46-.46-.12-.12-.23-.26-.37-.36-.84-.68-.88-1.71-1.16-2.63-.14-.45.1-.75.54-.92.45-.18.93-.33 1.25-.73.19-.23.25.03.37.08.22.09.38.07.43-.24s.15-.63.3-.91c.09-.16.33-.36.48-.34 1.01.11 1.8-.51 2.65-.84.81-.32 1.59-.14 2.37-.19.13 0 .36.35.4.57.09.57-.18 1.04-.58 1.43-.5.48-.82 1.04-.63 1.92.23-.23.44-.4.6-.61.23-.29.54-.31.78-.15.11.07.06.46-.01.67-.14.41-.32.82-.48 1.23-.31.82-.67 1.62-.99 2.44-.19.48-.55.94-1.17 1.04-.13.02-.35.15-.35.23 0 .44.2.08.33.09.29.04.49.28.43.62-.08.48-.16.97-.26 1.45-.09.44.22.95-.22 1.33-.03.87-.25 1.68-.53 2.5-.1.3-.05.54-.49.52-.78-.04-1.56.03-2.33-.02-.52-.04-1.04-.17-1.55-.33-.15-.05-.2-.17-.38 0-.23.21-.13.31.03.47.1.1.18.39.2.38.48-.14.79.49 1.31.24.43-.21.89-.36 1.36-.47.55-.13 1.08.14 1.52.38.47.26.84.74 1.2 1.17.43.52.14 1.16-.54 1.3-.4.08-.79.2-1.19.25-.38.04-.78-.02-1.16.02-.49.05-1.03.05-1.43.28-.41.24-.8.22-1.21.22-.42 0-1.04-.38-1.04-.74 0-.44-.31-.8-.27-1.19.09-.88-.65-1.13-1.09-1.6-.03-.03-.16-.03-.17 0-.03.07-.07.18-.04.23.22.34.47.67.68 1.02.16.27.17.56-.1.79-.36.3-.65.65-.65 1.16 0 .09-.08.18-.13.28.12 0 .29.07.34.02.37-.36.74-.27 1.16-.08.87.4.95.61.54 1.52-.2.44-.35.89-.56 1.32-.19.4-.67.29-.95.49-.29.2.13.76-.29 1.03-.1.06-.2.15-.32.17-.21.04-.35.17-.09.25.85.25.95.87.87 1.59-.11 1.02.35 1.93.53 2.9.06.34.19.05.32.02.59-.16 1.3.28 1.21.85-.2 1.23.35 2.04 1.23 2.75.11.09.13.29.25.59.25-.31.46-.57.67-.82.44-.51.71-1.23.41-1.72-.27-.44.05-.96-.38-1.28-.07-.05-.1-.3-.05-.33.29-.22.35-.6.17-.78-.16-.16-.55-.09-.84-.12-.13-.01-.26.02-.39 0-.88-.15-1.19-.7-.86-1.59.09-.23.16-.38-.13-.48-.15-.06-.3-.13-.42-.24-.81-.75-.86-1.24-.24-2.14.14-.2.21-.45.38-.62.33-.32.27-.7.18-1.06-.25-1.06.27-1.83 1.3-1.91.17-.01.35 0 .52 0q.74 0 .95.84c.12-.53.43-.78.87-.97.23-.1.25.02.38.08.37.19.72.08.95-.27.1-.16.72-.29.91-.19.07.04.11.14.19.18.48.25.55.88 1.07 1.13.44.21.82.54 1.24.82-.4.53-.86.84-1.44 1-.07.02-.07.27-.1.42.12.03.27.11.35.06.28-.16.54-.36.82-.54.68-.46 1.46-.17 1.64.63.03.12 0 .26 0 .39 0 .29.03.33.34.15.43-.25.88-.13 1.23.3.4.5 1.22.59 1.37 1.36 0 .03.29.08.33.03.22-.31.53-.22.82-.22.94-.02.96-.02 1.09.94.04.27.16.28.36.38.4.2.67.57.28 1.02-.25.29-.07.54.14.61.88.32 1.72.96 2.69.63.35-.12.5-.13.85-.01.34.12.31.33.42.51.36.62.45.67 1.15.53.1-.02.19-.15.27-.14.54.08.77.56.45.97-.2.26-.58.5-.61.77-.06.48-.63.94-.06 1.49.15.14 0 .58.03.88.04.3-.09.55-.32.63-.17.06-.42-.08-.62-.17-.78-.38-1.31-1.06-1.91-1.65l-.42-.42c-.25.58-.14.89.41 1.24.43.27.87.64 1.06 1.22.08.25.48.45.78.55.7.24 1.04.79 1.25 1.42.26.77.36 1.59 1.02 2.18.16.14-.02.41-.27.4-.24-.01-.51-.02-.72-.12-.72-.36-1.49-.6-2.2-.94-.43-.21-.76-.22-1.19-.17.2.39.49.44.84.48 1 .11 1.74.62 2.19 1.57.12.25.1.4-.1.54-.23.17-.47.42-.72.44-1.25.11-2.55.17-3.64-.54-.57-.37-.95-1.05-1.39-1.61-.47-.59-1.69-1.55-2.25-1.7-.1-.03-.27.11-.37.21-.08.08-.1.22-.16.32-.19.31 0 .88-.46.96-.57.1-1.17.2-1.74-.08-.11-.05-.24-.06-.34-.12-.44-.26-.96-.51-.93-1.12.02-.52.78-1.15 1.39-1.2.39-.03.78.02 1.17-.01.4-.03.54-.33.41-.78-.31-1.01-.16-1.52.75-2.32.22-.19.16-.22-.06-.27a1 1 0 0 1-.22-.07c.22-1.39-1.15-1.68-1.76-2.53-.47.62.58 1.16-.08 1.81-.45.04-1.06.09-1.64-.24-.33-.18-.47-.4-.49-.79-.04-.65.21-1.2.39-1.79.07-.23.12-.48.14-.72 0-.11-.07-.31-.12-.32-.91-.1-1.08-1.06-1.71-1.46-.1-.06-.25-.13-.34-.09-.08.03-.14.19-.15.3-.02.21 0 .43 0 .65-.03.71-.18.84-.93.85h-.65c-.26 0-.42-.53-.75-.13.24.15.5.28.7.46.56.51 1.2.81 1.93.98.28.07.45.3.49.65.05.42-.28.34-.47.44-.43.21-.86.4-1.25.58.24.44.5.93.78 1.41.25.44.21.87.03 1.31-.27.66-.65 1.23-1.19 1.72-.56.5-.81.47-.99-.26-.09-.36-.05-.75-.2-1.15-.03.2-.05.39-.1.59-.04.15-.07.34-.18.44-.17.16-.52.22-.57.39-.09.31-.03.68-.03 1.03.29.14.34-.15.47-.26.18-.15.31-.12.54-.09.71.1.7.95 1.33 1.13.59.17 1.1.52 1.54.98.31.33.71.56 1.08.83.15.11.42.17.46.31.06.23.04.52-.04.75-.13.36-.49.42-.96.22-.15-.06-.3-.12-.44-.19-.11-.05-.21-.34-.33-.04-.03.08.13.25.23.34.12.11.28.16.4.27.46.4.44.4.05.99-.18.27-.3.57-.44.86-.16.34-.39.49-.79.49-.86 0-.98-.13-1.04-1.02-.03-.44.24-.93-.17-1.32-.36.17-.75.3-1.07.53-.57.4-1.07.03-1.56-.13-.34-.11-.46-.63-.2-1.11.16-.3.12-.56-.26-1.75.38-.04.37-.04.42.39.02.17.08.34.12.51.04-.15.07-.31.13-.46s.18-.27.22-.42c.23-.77.09-.94-.76-.94-.16 0-.32 0-.14.91Z" class="canada-icon_svg__cls-1"/><path d="m41.83 23.94.52.52c-.07.4.19.88-.27 1.18-.62.4-1.32.56-2 .27-.43-.18-.74-.09-1.16 0-1.05.2-2.18.4-3.05-.55a1 1 0 0 1-.24-.54c-.01-.11.12-.28.23-.34.14-.07.32-.06.48-.09-.14-.09-.29-.18-.43-.28a.26.26 0 0 1-.09-.09c-.18-.26-.64.18-.72-.3-.08-.46.04-.84.43-1.12.03-.02.05-.06.18-.21h-.96s-.1.02-.13 0c-.19-.19-.46-.35-.54-.58-.08-.24 0-.52-.41-.46-.36.05-.56-.19-.63-.48-.04-.17.02-.47.15-.56 1.01-.78 2.03-1.6 3.43-1.16.21.07.27.04.37-.08.25-.31.47-.45.83-.08.14.15.39.04.4-.27 0-.19-.1-.5.25-.46.36.04.54-.16.76-.36.14-.13.34-.21.53-.28.94-.33 1.73-.27 1.57 1.04-.06.48-.38 1.64-.57 1.84-.53.54-1.08.49-1.59-.12-.25-.3-.55-.55-.82-.83-.12.29-.2.6-.37.86-.5.77-.41 1.29.44 1.42.57.09.57.29.58.71.01.49-.19 1.05.45 1.45.02-.28.08-.52.05-.75-.06-.46.26-.76.42-1.12.15-.33.53-.35.77-.19.17.11.28.46.26.69-.12 1.06-.14 1.05.89 1.33Z" class="canada-icon_svg__cls-1"/></svg>