<svg width="32" height="32" fill="none" xmlns="http://www.w3.org/2000/svg"><g clip-path="url(#pinterestsvg)"><path d="M16 0C7.163 0 0 7.164 0 16c0 6.779 4.217 12.573 10.17 14.904-.14-1.265-.267-3.212.055-4.594.29-1.25 1.876-7.953 1.876-7.953s-.479-.959-.479-2.376c0-2.225 1.29-3.886 2.895-3.886 1.365 0 2.025 1.025 2.025 2.254 0 1.373-.874 3.425-1.325 5.327-.377 1.593.798 2.892 2.369 2.892 2.844 0 5.03-2.999 5.03-7.327 0-3.831-2.753-6.51-6.684-6.51-4.552 0-7.224 3.415-7.224 6.944 0 1.375.53 2.85 1.19 3.651.131.159.15.298.111.46-.121.505-.391 1.591-.444 1.814-.07.293-.232.355-.535.214-1.998-.93-3.248-3.852-3.248-6.199 0-5.047 3.667-9.682 10.572-9.682 5.55 0 9.864 3.955 9.864 9.24 0 5.515-3.477 9.953-8.303 9.953-1.621 0-3.145-.843-3.667-1.837 0 0-.802 3.054-.997 3.803-.361 1.39-1.336 3.132-1.988 4.195A15.99 15.99 0 0 0 16 32c8.837 0 16-7.163 16-16 0-8.836-7.163-16-16-16Z" fill="#fff"/></g><defs><clipPath id="pinterestsvg"><path fill="#fff" d="M0 0h32v32H0z"/></clipPath></defs></svg>