<svg xmlns="http://www.w3.org/2000/svg" fill="none" viewBox="0 0 46 26"><path fill="currentColor" d="m44.215 16.285-.025.038-.087-.015-.018-.047-.004-.033.055-.066.062.028.023.031.018.007v.027l-.007.02zm-.024-.505-.012.024-.064-.045-.02-.084.002-.017.011-.01.026.017.034.006.021.027zm-.978-.61-.125.047.005-.027.1-.066.036.005zm-5.38 5.373.003.027-.037-.015-.048-.057-.049-.043.012-.045.013-.016.048.043.048.08zm8.117-.58-.023.019-.07-.037-.025-.044-.003-.141.043-.014.082.112.047.04-.052.065Zm-2.607-4.467h-.012l-.009-.007-.008-.014-.005-.014.001-.009.007.004.052.009-.006.01-.009.012zm-1.48-14.357-.07.036-.02-.003-.014-.013.072-.036.06-.084.02.006zm-2.71 19.687-.038.103-.022-.046-.004-.082-.015-.032-.033-.02-.017-.027.001-.04.117.064zm4.109-4.972-.02.02-.016-.002-.01-.019-.003-.031.016.008.006.005.005.007zm-.23-.12-.007.004-.01-.01.001-.014.009-.007.006.004.005.013zM32.118 7.716l-.016.009-.068-.1-.055-.03.085-.07.037-.06V7.33l.02-.073-.007-.063.019-.064-.025-.073L32.037 7l-.141-.23-.223-.055-.115-.002.063-.037.058.004.09.022.108.01.066.068.063.09.057.036.023.022-.002.027.01.024.073.042.075.067.022.197-.1.094-.019.285-.027.051Zm-.989-.827.095.032.05-.005.031-.02.14.008.113-.03.017.054-.003.028-.24.026-.22.078-.121.053-.057.006-.043-.028-.145-.161.039.016.107.091.067-.016.061-.061.01-.046-.01-.021.029-.073.08.07Zm1.439 1.243.128.112.11.042.118.14.051.05.01.046-.02.207-.027.125.003.109-.027-.033-.028-.071-.047-.041-.015-.022.083-.004.007-.113.04-.089-.005-.093-.097-.102-.066-.09-.102-.028-.095-.09-.056-.01-.068.015.024-.054.018-.07.012-.014zm-.854.774-.002.12.009.089-.008.032-.085.06-.021.033-.08.034-.048.047-.024-.076-.047-.047-.008-.08-.035.026-.052-.016-.085-.06-.054-.083.076-.014.015.051.06-.063-.014-.033-.01-.004-.02-.061.09-.162.019-.104-.04-.168.037-.011.101.059.046.058v.08l.043.06.062.148zm.309-.304-.088.02-.063-.02-.016-.016.027-.027.059-.023.095-.003.042.027.005.012zm1.59.804.006.05-.052-.01-.078.02h-.027l.017-.034.053-.046.003-.044-.066-.064-.077-.159-.036-.037-.018-.06-.064-.064.013-.034.013-.008.044.016.099.229.006.021zm-1.832-.048.001.022-.077.062.056.045.053-.097.042.079.023.146-.004.026.004.022.008.028.002.04-.043.128-.154-.013-.003-.108-.024-.02-.036-.155-.048-.05-.067-.126.039-.033.052.01.026-.015.072-.012.044-.017zm2.518.178-.062.107-.033-.01.018-.134.043-.02h.017zm-.963.607-.033.005-.058-.026-.136-.119-.064-.01.021-.067.048.023.11.103.042.051zm.642.543-.005.025-.098-.195-.124-.047-.071-.047.015-.027.05-.012.008-.061-.022-.067-.065-.136-.037-.091-.017-.021-.005-.077.078.119.032.106.052.104.035.178.1.06.07.087zm.611.166.018.018-.05.039-.112-.049-.025.004-.022-.052-.009-.037.005-.036.067.027.036.051zm-.116.495-.055.03.012-.05.105-.086.058-.075.033-.027.012-.02.046-.028.023-.048-.007-.04-.048-.065.001-.046.017-.032.08-.016-.02.05.031.138-.108.172-.092.053zm.909-.208.048.013h.027l.089.028.053.04.012.017-.029.036-.082-.068-.071-.008-.1.001-.041-.013.027-.072zm.098.893-.104.047-.011-.056.053-.044zm-.087.303-.025.07-.082.135-.185.034-.203.006-.015-.036-.005-.033.015-.05-.001-.02-.009-.02.075-.022.048-.062.077-.01.096.043.052.002.076-.049.062-.104.036.013zm-11.911 2.597-.041.108.041.014.038-.01.092.003.035.118-.01.1-.086.26-.01.088-.04.134.053.088-.05.116-.016.076-.004.113.025.215-.04.31-.072.135-.044.051-.079.134-.103.04-.144.216-.025.057.014.061h-.034l-.138-.01-.093.012-.003-.006.007-.232.012-.36.009-.264.008-.258.006-.194.009-.265.008-.229-.001-.082.022-.065.065-.027.084.057.035.024.031-.014.04-.034.05-.1.122-.208.05-.147.047-.029.07-.005zm.27.518-.037.017.03-.055.005-.034.042-.146h.03l.009.014-.08.204Zm.076.473-.06.131-.004-.037.025-.098.034-.034.021-.036.005-.043.03.021-.008.042zm3.285 6.027.019.036.022.057.01.074.1.245.079.138.173.25.075.045.127.2.043.034.025.06.131.048.037.036-.005.017-.013.017-.02.018-.025.012-.062-.036-.06-.042-.034.019-.012.054-.023.028-.028.01-.012.019-.002.182.002.171.046.004.077.06.032.035.01.033-.009.015-.056.038-.055.047-.027.059.048.096.01.064-.001.068-.014.033-.106.077-.023.028.003.02.059.053.027.052.023.062.004.055-.053-.101-.074-.096-.064-.06-.005-.138-.025-.075-.096-.069-.083-.049-.06.01.037.08.096.102.006.039-.001.052-.066-.008-.06-.02-.07-.008-.048-.03-.101-.123.072-.104.022-.068-.002-.141-.017-.069-.077-.104-.124-.115-.174-.094-.08-.076-.204-.057-.077-.039-.06-.07-.01-.052.022-.079-.056-.1-.242-.197-.135-.073-.03-.043-.02-.013.02.136.059.082.154.077.043.044.017.059-.09.11-.045.028-.014.06-.029.02-.03-.036-.126-.174-.242-.083-.044-.051-.09-.16-.041-.144.015-.097.099-.15.031-.067-.006-.04.003-.06-.037-.041-.092-.054-.059-.044.016-.021.106-.06.006-.052v-.017l.017-.004.015-.014.01-.015.028-.05.026-.03.029-.004.035.021.133.055.148.061.21.086.088-.055.075-.042.052.006.113.05.068.015.042-.005.072.072.04.055.006.036.022.02.056.003.138.037.084-.007.077-.039.043-.047zm1.406-11.526.204.045.165-.013.08-.027-.008.028.073.067.026.004.107-.034.279-.012.028.019.05.065.07.04.074.032.077.008.077-.014.072.007.09.063.028.008.08-.018-.023.059.136.082.1.16.072.067.076.059.064.04.073.02.219-.008.052.005.046.022.045.01.025-.01.424.25.135.134.082.069.178.1.071.022.038-.014-.007-.021-.053-.056-.007-.02.067.017.12.113.034.041.06.039.061.027-.029.045-.05.004-.094-.019.075.073.013.052.035.005.052-.058.033-.048.133.125.072.057-.018.034-.006.033.08-.03.03.003.03.017.031.054.075.012.076-.001.152.044.145.09.136.019.138.003.07.048.029.064-.034.046-.019.047.051.058-.111.025-.016.035.006.038.022.02.064-.018.092.016.145.014.098-.011.198.04.06.02.117.075.054.05.117.131.1.052.087.012.03-.008.028.014.024.019.024.057-.014.06-.05.05-.027.036-.124.004-.174.016-.167.054-.083.042-.037.028-.088.026-.006-.022.001-.028-.023-.052-.02.047-.033.034-.055.029-.204.002-.082-.04-.084-.026-.307-.028-.073.002-.205.03-.206.015-.086.018-.086.027h-.166l-.196.03-.196.006.126-.217.265-.209.05-.045.036-.057.008-.044-.012-.037-.063-.065-.013-.049-.019-.031-.091-.028-.094-.016h-.098l-.206-.023-.11-.002-.092-.044-.154-.16-.072-.044-.037-.036-.029-.041-.036-.234-.03-.113-.047-.098-.071-.075-.075-.025-.286.064-.066-.01-.065-.022-.431-.152-.178-.084-.073-.041-.061-.06-.065-.096-.072-.087v.035l-.01.022-.361.01-.058-.02-.037-.023-.026-.035-.02-.07-.034-.06-.011.063-.018.059-.048.032-.056.006-.067-.078-.292-.016-.026-.013-.096-.075-.082-.094.081-.033.169-.044.036-.029.021-.037-.015-.055-.034-.04-.034-.024-.038-.015-.05-.006-.652-.01-.037.03-.059.061-.115.08-.077.081-.028.042-.036.03-.08.051-.068.078-.083.035-.045-.022h-.045l-.032.02-.035.009-.167.01-.025.02-.024.055-.027.108-.025.036-.084.014-.08.03-.162.102-.042.015.009-.075-.008-.074-.046-.003-.052.013-.044.02-.08.055-.041.014-.038-.028.007-.036.27-.133.03-.01.047.01.047-.004.036-.037-.044-.176.017-.12.062-.093.125-.14.06-.047.614-.294.063-.015.399-.059.06-.02.185-.088.195-.035.208.027Zm1.94.486.002.026-.137-.072-.058-.074-.024-.017.038-.002.154.122zm.562.109.107.02.037-.012.035-.004.038.009.053.08-.047.01h-.036l-.027-.014-.097-.003-.063-.024-.035-.02-.017-.025zm.47.26-.016.015-.042-.036-.061-.016-.036-.056-.035-.021-.002-.021.056-.014.04.006.044.043.025.08zm.115.152-.025.003-.078-.04-.023-.034.027-.045.006-.05.01-.003.013.06.06.025.003.014.036.05zm.164.17-.032.03-.035-.043-.022-.004-.03-.017-.06-.048-.015-.05.05-.003.063.009.11.027-.01.056zm-3.816.368-.073.051-.154.072-.084.003-.083-.027-.058-.06-.033-.06.002-.029.053.048.045.024.038-.016.026-.026-.085-.192.004-.041.067-.106.184.032.032.019.026.067.04.052.049.14zm10.772 8.935-.04.013-.15-.089-.124-.144-.004-.075.032.007.032.029.05.101.145.067zm5.828-2.947-.074.02-.03-.16-.052-.117.009-.073.009-.028.108.045.033.054.02.143zm-8.179-2.615.003-.155.02-.064-.018-.067-.087-.07-.053-.092-.047-.08.01-.012.095-.004.033-.03.063-.082.013-.067-.005-.05-.042-.06-.016-.065.05-.055.067-.081.01-.031-.002-.031-.078-.085-.005-.037.036-.093-.003-.062-.036-.192-.017-.028.034-.017.023-.057.03-.051.04-.027.046-.018.09.002.125.044h.036l.12-.04.1-.024.093.026.038.035.078.055.038.017.123-.002.033.006.103.09.086.037.05.002.09-.035h.046l.05.079.01.11.044.102.065.065.323-.027.072.053-.024.043-.046.024-.154-.01-.067.005-.013.044v.04l.09.01.087.02.09.033.092.022.102.015.102.023.169.08.186.18.05.041.033.056-.016.07-.066.114-.038.037-.055.022-.038.047-.036.08-.022.006-.027-.003-.044-.045-.032-.07-.09-.065-.108.009-.157-.039-.096.019-.095.004-.098-.02-.098-.006-.099.024-.095.042-.034.027-.062.064-.032.024-.232.033-.066-.048-.062-.065-.09-.008-.128.05-.08.018-.034.021-.01.025v.09l-.018.056-.126.208-.07.147-.03.045-.034.01-.062-.085-.04-.03-.048-.015-.02-.045v-.064l-.013-.062-.03-.048zm7.84 5.605-.052.004.02-.034.005-.058.027-.07.043-.048.042.013-.016.155-.07.038Zm.302-3.906-.092.01-.06-.007-.014-.067.031-.057-.022-.069.014-.04.03-.028.051.036.009.052.031.047.143.1zm-.204.21-.064.041-.03-.013-.039-.08-.027-.224.021-.037.015-.014.083.028.035.031.035.02-.018.041.009.168zm.28.109-.044.003-.019-.008-.005-.056.033-.038.02-.01.029.044.007.036z"/><path fill="currentColor" d="m22.808 15.553-.007.229-.009.265-.006.194-.009.258-.008.265-.012.36-.008.231.004.005.093-.01.138.01.033-.001.042.02.033.006.07.052.082.04.052-.08-.027-.048-.021-.025.003-.021.285.206-.033.032-.073.074-.131.126-.118.112-.114.102-.102.092-.012.008-.13.066-.021.03-.028.13-.013.032.024.072.023.11-.008.058-.089.072-.041.064-.018.041-.016-.01-.028-.004-.064.016-.031.004-.026.018-.002.04.017.065.006.033-.018.015-.08.04-.03.038-.03.059-.035.025-.036-.004-.025.008-.055.045-.082.086-.044.064-.001.048.008.043-.3-.152-.099-.026-.42.003-.18-.06-.206-.115-.14-.105-.324-.294.02-.023.018-.055.02-.057-.012-.065-.008-.053.024-.077-.002-.058.011-.036.036-.023.018-.044-.101-.152v-.034l.014-.043.081-.163.098-.193.107-.214.065-.129h.947l.059-.002-.01-.084.008-.093.025-.084v-.037l-.042-.045-.082-.027-.045-.04v-.051l-.02-.062-.04-.072-.082-.074-.125-.076-.106-.102-.087-.127-.074-.082-.058-.035-.013-.018.167.001.158.002.001-.184v-.162l.002-.185h.628l.355.001z"/><path fill="currentColor" d="m25.374 16.825-.06.054-.01-.024.028-.05.036-.03.035.004-.008.021zm-.428.078-.125.073-.04-.001.058-.056.092-.049.079-.024.064.01zm2.544 1.292-.2-.014-.095.029-.042.064-.035.03-.03-.007-.06.025-.091.057-.082.022-.073-.014-.021.014-.006.019-.011.018-.029.01-.032-.005-.036-.02-.02.008-.002.037-.02.01-.037-.017-.042.013-.046.045-.066.01-.085-.026-.065-.05-.046-.07-.056-.019-.097.054-.04.062-.01.038.01.034-.018.023-.045.012-.035.042-.023.072-.005.057.014.04-.022.028-.06.019-.07.063-.08.107-.08.074-.08.042-.038.047.003.052-.005.016-.015.006-.026.007-.154-.112-.044-.078-.038.012-.049.04-.068.087-.072.12-.036.013-.182-.018-.096.011-.02.016-.009.043.006.06.026.21.015.086-.014.027-.05.004-.063.012-.035.04-.008.04-.003.058-.02.059-.04.042-.038.015-.217.011.003-.097-.062-.04-.036-.08-.03-.055.01-.033-.004-.04-.088-.03-.082.024-.048-.015-.035-.02.06-.049.004-.03-.019-.02-.02-.014.006-.055.012-.064.034-.15-.012-.027-.056-.045-.07-.005-.077.015-.037-.024-.033-.052-.055-.024-.097.04-.104.063-.031.023-.026-.003-.012-.047-.005-.055-.007-.014-.055-.02-.064-.013-.033-.015-.03-.038-.078-.048-.017-.037-.103-.082-.02-.04-.024-.03-.05-.039-.039.01-.13-.048-.02-.004.018-.042.042-.064.09-.071.007-.058-.024-.11-.023-.073.012-.032.028-.13.022-.03.13-.065.012-.009.102-.092.113-.101.118-.113.132-.126.072-.073.034-.032.076.026.06-.06.034-.02.081-.07.025-.016.135-.03.065.001.058.073.045.04.085-.035.072-.007.295.067.117-.03.216-.006.097.017.137-.095.087-.02.104-.044-.014-.046-.025-.02.157.02.235.096.25-.017.09-.052.057-.015.256.1.067.076.053.007.04-.017.012-.016-.05-.017-.023-.024.201.047.38.36.007.03-.162-.107-.086.008-.022.017.005.058.008.027.036.003.027-.016.067.02.045.038.053.06.033.063.035.001.034-.038.064-.005.042.043.03-.003-.042-.067-.097-.066.023-.003.216.12.061.15.05.033zm8.185-4.752.032.023-.012.027-.078-.017-.082-.03-.027.007-.016-.004-.048-.03.042-.022.043-.007.047.001zm.69.305.018.029.036.192.003.061-.036.093.005.037.078.085.001.031-.009.031-.066.082-.05.055.015.064.041.06.006.05-.013.067-.063.083-.033.03-.094.003-.01.012.046.08.053.092.086.071.02.067-.021.063-.004.156-.066-.076-.073-.063-.043-.025-.045-.015-.346.008-.04.01-.03.02-.032.01-.095.02-.094.004-.221-.05-.088-.027-.088-.017-.101.006-.1.015-.081.037-.06.064-.012.06-.035.016-.082-.096-.075-.068-.085-.05-.175-.074-.032-.044-.014-.054.07-.165.08-.03.045-.006.1.02.096.037.088.025.137.01.075.04.526.063.1.02.039-.007.034-.024.028-.045.032-.034.156-.007.033-.015.023-.047v-.048l-.092-.065-.144-.143-.126-.169.055-.057-.021-.104.02-.096.03-.094-.125-.08-.148-.082-.204-.025-.063-.02-.033-.06.03-.082.066-.045.076-.028.078-.02.188-.022.187.026.161.084.164.065.207.022.093.024.043-.02Zm-.8.895-.013.067-.2-.08-.161-.1.007-.055.083-.012.079.033.117.067zm-3.477.304.095.034.099.017.042.001.04.011.09.082.072.044.273.1.092.171.017.054-.07.031-.09.012-.085.001-.079-.032-.034-.025-.082-.013.02-.023-.036-.01-.045.002-.034.066-.037.052-.072-.005-.027-.045-.038.02-.03.033-.036.123-.06-.061-.063-.05-.08-.022-.16-.004-.077-.016-.063-.104-.025-.03-.064-.027-.063-.12-.023-.016-.172-.025-.035-.065.01-.06.057-.072.028-.02.096.003.09-.022.04-.031.042-.02.33.052h.075zM43.5 16.095l-.02.014-.035-.058-.057-.015-.05-.035v-.024l.01-.02.025-.015.063.047.03.058.027.027.008.02Zm.078.11-.04.02-.033-.026.008-.066.032-.002.031.03.002.045Zm-13.487-2.45-.036.014-.029-.006.064-.04.017-.013.014-.007h.015l.018.008v.006zm-.121.003-.008.006-.025-.005-.057.04-.025-.003.008-.013.012-.013.013-.01.012-.003.04-.008.02-.001.012.009zm-1.085.342.025.019.032-.012.01-.02.12.015.018.04h-.092l-.041.026-.02.005-.08-.006-.01-.092.021-.01zm15.972 5.18-.044.097-.086-.06-.01-.077.008-.046.052-.088.04-.058.03-.019.017.076zm-1.652-3.966h-.088l.007-.02.04-.024.03.002.012.008zm1.703 3.344-.008.053-.02.01-.029-.044-.128.006-.02-.039v-.019l.061-.067-.072-.018-.029-.029-.061-.14.005-.042.025-.021.042-.003.078.045.058.065.02.001.007.018-.012.046.035.039.015.028zm-1.029-2.094-.005.055-.053-.017-.001-.049.025-.05.012-.004zm-27.3-8.905-.014.206-.048.169-.155.35-.065.218-.125.617-.039.403-.009.19-.01.026.011.028-.03.417.016.356-.01.055-.046.106-.032.148.013.066v.045l.046.225.015.168.14.288.077.1.097.087.036.049-.018.122-.039.061-.017.098-.02-.08.008-.105.03-.057.002-.041-.057-.044-.104-.145-.127-.256.09.41.031.065.024.027.041.028.01.045v.033l.113.283.126.292.007.08.05.098.322.409.197.305.069.288.041.09.02.123.13.137.039.09.069.049.056.148.105.087-.025.002-.092-.044.006.029.077.062.152.06h.037l-.06-.032-.05-.042.018-.006.106.053.296.017.13.123.17.053.09.158.106.164.067.008h.053l.158-.027.246-.104.085-.05.166-.069.253-.012.078.019.19-.043.09-.052.031-.048.015-.035.175-.05.035-.01.177-.01.086-.018.101-.01.073.073v.036l-.049.034.023.034.087.054.158.023.052-.01.073-.08.128-.078-.003-.091-.023-.05-.037-.004-.009-.027.026-.067-.006-.023-.08.064h-.019l.01-.03.016-.023.235-.14.06-.058.08-.051.169-.191.036-.36.033-.063.112-.11.012-.034.007-.075-.003-.19.006-.15-.005-.168.02-.151.018-.043.064-.242.133-.107.23-.127.053-.021.734-.135.103-.032.127-.088.092-.03.168.003.052-.011.01-.012v-.012l.031-.012.098.011.181.053.067.013.162.062.18.024.025-.01.023-.02.018-.035-.018-.031-.018.002-.03.017-.036.001-.071-.025.014-.022.072.002.047-.01.069-.038.073.028.096.125.068.04.006.18.01.034.025.047-.034.14-.039.116-.048.095-.104.149-.126.119-.156.264-.035.124v.099l.027.095-.008.036-.019.036-.032-.004-.061.046-.08.136-.002.041.035.038.046-.018.059-.002.032-.011.035.003-.008.078-.037.055-.023.017-.043.01-.047.031-.024.03.002.09.026.006.056-.067.032.003.006.029-.072.23-.046.235-.063.136-.022.198-.033.084-.038.083-.023-.004-.06-.158-.062-.04-.014-.039.035-.192-.016-.106-.033.004-.04.058-.056.05.002.074-.063.121-.016.04-.06-.01-.07.006-.047.03-.05.146-.122.207-.05.1-.04.035-.03.014-.035-.024-.084-.057-.065.027-.023.065.001.083h-.442l-.355-.001h-.628l-.001.184-.001.163v.183l-.159-.001-.167-.002.014.018.057.035.074.082.088.128.106.101.125.076.082.074.04.073.02.061v.051l.045.04.081.027.043.045v.037l-.026.084-.008.093.01.084-.058.001h-.947l-.065.13-.108.213-.097.194-.082.162-.013.043v.035l.1.152-.018.044-.035.023-.012.036.003.058-.024.077.008.053.012.065-.02.057-.018.054-.02.024-.023-.02-.208-.253-.217-.277-.085-.091-.083-.07-.111-.127-.292-.282-.15-.129-.142-.154-.127-.085-.126-.056-.056-.032-.049-.043-.027-.002-.014.057.044.029.053.024.041.002.044.02.129.078.02.04-.365-.156-.15-.014-.015-.025.074-.082-.023-.03-.027-.003-.08.056-.029.004-.005-.037.004-.035-.052-.052-.032.002-.027.036-.07.068.003.027.136.029.047.016-.011.018h-.117l-.144.03-.258.19-.24.08-.344.183-.152.009-.08.029-.231-.07-.294-.17-.445-.054-.3-.224-.297-.092-.189-.215-.113-.01-.073-.034-.27-.078-.268-.051-.26-.188-.17-.06-.148-.075-.324-.128-.12-.072-.114-.11-.185-.114-.08-.095-.088-.034-.126-.18-.066-.075-.056-.036-.06-.012-.172.015-.258-.08-.12-.02-.248-.117-.33-.131-.108-.151-.093-.14-.167-.186-.103-.08-.18-.093-.1-.077-.155-.058-.262-.149-.083-.127-.049-.114-.139-.137-.152-.258-.04-.095-.03-.145-.035-.085-.041-.066.021-.049.078-.06.129-.013.09-.064.013-.053-.006-.033-.059-.081-.072-.022-.056-.001-.015-.03.043-.035.048-.079.072-.097.05-.089.01-.126-.006-.125.019-.107-.174-.123-.02-.052-.055-.142-.095-.164.003-.329-.114-.292-.118-.145-.062-.051-.165-.226-.131-.132-.128-.248-.127-.158-.161-.266-.117-.133-.53-.449h.03l.155.11.026-.008.004-.054-.018-.064-.029-.016-.041.015-.056-.014-.028-.021-.084-.014-.105-.075-.045-.077-.005-.09-.15-.189-.057-.106.029.008.04.042.04.013h.048l.034-.017-.012-.032-.032-.026-.22-.1-.072-.07-.18-.117-.042-.042-.028-.113-.044-.005-.039.031-.106.031-.026-.036-.004-.035.074-.037.07-.107-.002-.037-.038.043-.057.048-.06.027-.087.022-.045-.016-.04-.024-.062-.094L7 7.587l.056-.106.065-.105.055-.062.032.047.033.006-.023-.053-.055-.05-.019-.05-.002-.045-.026-.084-.16-.178-.151.014-.062-.006-.057-.068-.05-.114-.023-.095-.003-.051-.015-.051-.26-.084-.078-.072-.078-.09-.033-.074-.03-.054-.025-.096-.018-.11.029-.145.038-.07-.179-.051-.07-.002-.056.029-.051-.038-.106-.042-.125-.15-.148-.275-.162-.088-.052-.096-.067-.086-.058-.107-.009-.046-.017-.026-.081-.075-.092-.127-.023-.101-.025-.156-.06-.055-.06-.026-.012-.074.004-.042-.02-.078-.124-.19-.063-.155-.034-.049-.032-.071-.017-.146-.05-.182-.1-.218-.082-.148-.041-.148.018-.152-.014-.094-.01-.021.008-.031.027.017.023-.027-.002-.097-.03-.03-.08-.03-.035-.02-.194-.04-.112-.055-.007-.128-.052-.06-.047-.036-.146-.075-.023.038-.02.072-.061.015-.054.003-.09-.05-.221-.188-.047-.03-.07-.016-.034-.032-.15-.1.03.053.043.055.039.16-.046.116-.026.401.029.08.065.128.045.202.014.151.04.12-.012.28.015.084.062.14.115.13.024.07.15.099.092.129.182.175.057.074.164.274.006.08.03.1.092-.02.041.075-.005.035.011.027.049-.006.04.02.088.295.047.04.06.017.067.032.004.075-.002.06.057.087-.01.117.046.1-.007.095.019.076.141.171.174.136.037.178.07.162.074.041.073.068-.01.07.006.043.099.127.015.163.085.106.024.009.019-.017-.062-.107-.03-.07-.004-.109.021-.014.176.173.019.129.059.073.004.099.036.058.01.085.058.14v.194l.03.142.112.216.09.046.016.106.093.274.108.148.054.126.007.079-.04.115-.005.08.059.246.087.126.098.03.017.018-.007.034.032.03.037-.039.018-.054-.018-.064-.004-.046.017-.033.032-.005.187.168.032.064.07.075.063.092.028.073.05.06.027.14.13.063.07.115.005.073-.034.187-.03.053-.104.08-.077.094-.074.058-.078.036-.065-.008-.062-.109-.074-.328-.05-.07-.034-.103-.058-.086-.208-.13-.105-.136-.102-.092-.11-.133-.3-.22-.123-.113-.082-.111-.052.001-.04.012-.016-.03-.003-.059-.018-.037-.175-.168-.036-.093-.007-.108.04-.28.017-.163-.011-.084-.019-.012-.016-.045-.004-.135-.042-.147-.16-.302-.115-.06-.103-.043-.283-.267-.077-.134-.018-.076-.01-.156-.039.09L4 6.827l-.12-.005-.134.075-.08-.07-.043-.08-.066-.097-.074-.019-.048-.002-.088-.12-.072-.038-.102-.015-.088-.06-.027-.066-.014-.094-.033-.055-.137-.11-.111-.122-.105-.077-.031-.064-.003-.044.167.012.197.047.095-.013.059-.045.056-.033.01.035-.011.064.054.059.075.047.052-.005-.05-.051-.032-.106.014-.038-.001-.053-.074.012-.01-.027.063-.08.072-.212.035-.21-.076-.183-.127-.127-.277-.374-.165-.193-.048-.072-.044-.034-.135-.044-.113-.108-.198-.153-.085-.08-.058-.185-.047-.026.015-.128-.02-.229-.034-.058-.107-.057-.026-.156-.005-.148-.02-.103-.183-.174-.01-.085v-.08l-.02-.08-.097-.166-.118-.145-.04-.07-.006-.14-.041-.039.015-.01.04.004.021-.018.003-.099-.178-.155-.05-.213-.095-.114-.023-.04-.05-.203.223-.022.223-.023.223-.023.223-.023.223-.023.224-.023.223-.023L2.778.7l.09-.012-.05.16L2.78.91l.37.158.37.157.37.157.37.157.37.157.37.156.37.156.37.156h.275l.276-.001h.276l.276-.001.275-.001h.276l.276-.001h.275l.001-.12v-.237l.001-.118h.172l.171.002.172.001.171.001.172.001.171.002.172.001.171.001.006.002.008.004.069.09.071.142.084.1.097.055.165.165.232.273.186.182.139.09.093.079.047.065.064.142.12.326v.15l.047.14.092.183.08.108.07.032.075.065.082.097.094.065.107.033.147.087.188.14.129.072.07.003.06-.045.053-.093.051-.06.051-.027.02-.043-.009-.059.034-.132.078-.207.093-.112.108-.017.07-.04.034-.06.058-.006.082.047.135.03.186.014.11-.004.033-.024.017.002.002.025.027.011.054-.004.047.036.06.112.206.18.018.061.071.089.133.136.075.117.017.098.067.156.118.212.052.114-.013.017.01.06.031.102.058.087.085.071.087.127.087.184.105.14.124.095.07.09.017.081-.001.07-.02.059.009.055.034.052.012.065-.014.089.001.025.01.02.11.154.057.123.045.197v.002l.05.118.073.048.11.018.085.04.057.065.073.038.088.013.084.043.08.071.15.047.22.022.167.058.115.093.05.02h.014l.006-.013.009-.027.044-.03.108-.02ZM2.892 1.762l-.026.004-.049-.048.004-.045.01-.005.049.04.016.034zm1.2 2.765-.006.018-.08-.064-.18-.217-.066-.109-.01-.05.005-.115.062.014.071.076.032.071.001.08.134.04.019.174zm.743.048-.06.242-.06-.004-.123-.076-.013-.048.047-.28.037-.038.108-.038.017.035.011.083zM.124 4.64l-.034.04L0 4.465v-.052l.026-.025.043.004v.054l.037.046.014.044zm2.396.893-.01.032-.132-.068.072-.118-.01-.125.03-.026.03.04.037.16zM5.695 7.6l.01.036-.006.01-.032-.025-.054.15-.016.013.033-.204.034-.03.038-.006zm-.747 1.465-.016.011-.066-.114-.01-.079-.028-.033-.067-.026.058-.16.05-.332.021.06-.052.337.003.044.024.04.026.07.003.075.046.07zm1.163-.453.022.111-.04-.016-.053-.06-.035-.077.003-.035.007-.006.074.045zm-.883.604-.01.046-.236-.184.057-.017.065.012zm1.477.239-.017.003-.04-.052-.017-.129.008-.013.075.159-.001.02zm2.576 2.477-.023.08-.059-.033-.02-.05-.005-.082.033-.013.047.034.01.024zm15.435.358.014.047-.014-.006-.017-.035-.013-.043.01-.002.01.016zm-.176.9-.04.03-.022-.106.032-.103.04-.06.076-.006.051-.02.007.026-.042.08zm-18.7 1.487-.047.02-.07-.058.019-.046.04-.031.036.058zm15 .061-.088.022-.015-.02.177-.097.03.004.01.013-.091.046z"/><path fill="currentColor" d="m27.49 18.195-.022.034-.024.022-.05.111-.017.01-.004-.082-.03-.01-.035.028-.019.043.03.054.027.001.033.015.087.38-.019.067-.054.106-.051.089-.051.056-.064.238-.057.387.04.346-.02.32.018.076.006.094-.043.017-.024-.003-.024-.058.003-.05.025-.06.01-.08-.012-.043-.025.092-.044.041-.028.015-.028.046.03.088.038.064.012.045-.014.055-.009.187-.013-.005-.014-.026-.04-.001-.005.075.003.042-.034.032-.012.032.028.024.03.013.039-.003.03.092.01.075-.072.07-.025.057-.04.07-.024.068-.007.049.028.155.05.11.042.07.056.015-.013.073-.042.047-.077.039-.084.007-.138-.037-.056-.004-.022-.02-.007-.036-.04-.054-.072-.073-.041.006-.068-.016-.114-.05-.052-.006-.075.043-.087.055-.21-.086-.148-.061-.133-.055-.036-.021-.029.004-.025.03-.029.05-.009.015-.015.014-.018.003v-.024l-.065-.1-.104-.122-.396-.373-.145-.223-.078-.16-.075-.084-.213-.172-.05-.068-.212-.229-.162-.134-.002-.058.067-.071.032.003.036.051.057.058h.027l.04-.026v-.027l.218-.011.039-.015.039-.043.02-.059.004-.056.008-.041.035-.04.063-.012.05-.004.014-.027-.015-.087-.026-.21-.006-.06.009-.043.02-.016.096-.01.182.017.035-.013.073-.12.068-.087.048-.04.039-.012.044.078.153.112.027-.007.015-.006.005-.016-.003-.052.038-.046.08-.043.08-.074.08-.107.07-.063.06-.018.022-.03-.014-.039.005-.056.023-.073.035-.042.045-.012.018-.023-.01-.034.009-.038.04-.062.098-.053.056.018.046.071.065.049.085.026.065-.01.047-.044.042-.014.037.018.02-.01.002-.038.02-.009.036.02.032.006.029-.01.01-.018.007-.02.02-.013.074.014.082-.022.09-.057.06-.025.03.006.036-.029.041-.064.095-.03zm4.512 5.813-.015.012-.043.072-.023.061.055.065.017.068.031.075.05.074.054.139.013.056-.016.036-.052.022-.049.065-.013.079.01.04-.147.126-.038.02-.025-.019-.031-.063-.037-.051-.02-.018-.012-.001-.012.012-.005.028.02.118-.017.048-.05.037-.057.193-.022-.024-.187-.26-.163-.322-.034-.146.042-.01.04.004.023-.022.025-.043-.02-.099.078-.075.03-.05.022.006.052.086.075.049.092.072.057.016-.072-.075-.125-.1-.034-.064-.033-.09-.049.039-.022.033-.026.018-.021-.022-.004-.03-.074-.005-.019-.027-.02-.015.01.057.014.035-.008.042-.023.003-.02-.044-.027-.04-.035-.164-.083-.078-.038-.026-.032-.01-.046-.052-.061-.028-.084-.082-.102-.06-.125-.02-.152.013-.051.033-.035.041-.016.02-.09.047-.034.069-.021.057-.045.066.051.04-.292.223-.058.032-.132.023-.03.024-.04.044-.006.067.007.057.038.044.034.028.081.133.145.167.028.06.022.091-.044.043-.034.018-.137.007-.048.036-.019.055-.051.045-.178.045-.14.005-.043-.052-.01-.145-.094-.248-.023-.17-.023.02-.05.02-.017.043-.012.126-.019.043-.038-.004-.08-.045-.104-.042-.134-.267-.014-.05-.026-.06-.104-.025-.088-.046-.096-.006-.05.025-.05-.032-.008-.073-.101.032-.13-.011-.116-.031-.079.016-.066.053.01.133-.02.026-.003-.055-.023-.062-.028-.052-.059-.054-.003-.02.023-.026.106-.078.013-.033.002-.067-.01-.065-.048-.095.027-.06.055-.047.056-.037.01-.016-.01-.032-.034-.035-.076-.06-.047-.004-.001-.171.002-.182.011-.018.029-.011.022-.028.013-.054.033-.02.06.042.063.037.025-.012.02-.018.013-.018.005-.017.049.049.1.086.007.042-.01.04.028.117.052.017.053-.023.013.022-.01.022-.027.024-.006.1.086.046.043.041.144-.019.053.011.036-.012-.04-.08-.054-.06.005-.027.04.02.031.04.07.051.13.175.15.042.117-.006.11-.023.175-.068.127-.122.1-.055.328-.116.116-.121.05-.016.046-.015.103-.092.055-.072.059-.036.173.026.112.034.078-.005.074.024.033.052.034.023.183-.006.15.026.329.154.196.153.104.162zm-3.79-.657-.01.043-.06-.077.036-.012.013.001.02.045Zm2.6 1.005-.015.038-.036-.085.006-.022-.003-.077.035-.02.025-.002.022.01.013.092-.011.041zm-.13.018-.035.04-.013-.037.024-.04h.01l.014.038Zm-1.979.835-.043.005-.087-.039-.064-.075-.005-.024.001-.025.035-.077.047-.026h.018l.045.089-.03.034.012.054.063.041zm12.07-10.251.024.019.023-.003-.019-.039h.018l.15.024.095.04.1.02.005.131-.076.053-.05.055-.04.067-.107.078-.128.024-.086.002-.032-.003-.031-.013-.065.013-.08-.035-.068.009-.135-.008-.051.03-.049.006-.047-.005-.04-.014-.101.001-.043-.026.018-.15v-.067l-.024-.056-.027-.035-.02-.042.04-.027.032-.04.01-.06.036-.015.042-.007.192.028.487.016.028.005zm.549.32-.062.007-.04-.008-.013-.028.075-.026.086.003.05.016.006.01zm-1.909.044-.007.001h-.007l-.004-.004-.005-.008-.022-.014-.005-.014.005-.013.009-.006h.05l.009.01v.007l-.005.007-.008.016-.003.004-.003.004v.008zM22.652 18.73l.02.005.13.047.038-.009.05.038.024.03.02.041.103.082.018.036.076.049.032.037.032.016.065.014.055.02.006.013.005.055.012.047.026.003.032-.023.103-.062.098-.041.055.024.032.052.038.023.077-.014.07.005.055.045.013.026-.034.15-.012.065-.006.054.02.015.019.02-.004.03-.06.048-.02.012.014.093-.044.056-.041.04-.073.012-.122.004-.185-.046-.136-.062h-.073l.023.02.058.014.076.043-.022.012-.277-.09-.32-.18-.192-.03-.219-.046-.13-.114-.097-.05-.008-.043v-.047l.045-.064.082-.086.055-.045.025-.009.037.005.034-.026.03-.059.03-.038.08-.039.018-.015-.006-.034-.017-.064.002-.04.026-.019.031-.003.064-.016.028.003zm20.465-3.417h.088v.023l-.01.024-.052-.02-.027-.022zm-6.83-3.603-.014.01-.045-.034-.007-.027h-.016l-.027-.025.007-.031.062-.001.024.086zm.17.072-.002.013-.045-.037h-.084l-.014-.051.033-.009.107.018.025.045zm-.523-.083.089.053.053-.008.005.012-.03.012-.006.01-.086.014-.027-.002-.006-.036zm9.029 10.011-.043.01.005-.037.075-.062.114-.043.029-.001-.017.056-.163.078Zm-.2.955-.126.05-.33.013-.136-.019-.105.015.19-.112.023-.047.081-.009.024-.014.026-.247-.01-.059-.016-.032-.033-.024-.074-.031-.012-.017.047-.028.099-.015.073-.03.154-.006.074-.026.125-.007-.061.113-.03.042.012.102-.014.07.017.087.037.058-.024.056-.004.086zm-.127-2.772-.023.014-.058-.062.007-.072.035-.04.033-.022.033-.003.012.06-.008.084-.031.04Zm-.04.15-.013.01h.006l-.006.007-.004-.007-.006-.004-.008-.002h-.01v-.006l.013.004.017-.004v-.008l-.005-.006-.002-.005.006-.007.022-.016.009-.009v.004l.001.003.001.003.004.003-.012.013-.014.027Zm-.085.276h-.008l-.007-.003.002-.002.009-.003.004-.006-.001-.008v-.009l.007-.005h.005l.003.003.001.008-.004.007-.005.005-.002.008zm-2.303-5.641.011.032h-.006l-.045-.022-.034-.002-.014-.006-.008-.012.069-.001zm-.083.262-.02.006-.014-.001-.004-.014.014-.037.079-.005zm-.155.058-.061.003-.018-.011.034-.03.064-.003.019.007zm-.196.069-.059.008-.08-.044.063-.016.041.01zm.144-.023-.052.025-.035-.004-.013-.008.028-.03zm-.082.529.065.041h.08l-.083.042-.159.004.004-.067z"/></svg>