<svg width="24" height="24" viewBox="0 0 24 24" fill="none" xmlns="http://www.w3.org/2000/svg"><path d="M17.0002 11.631V5.72728C17.0002 5.00396 16.7129 4.31027 16.2014 3.7988C15.6899 3.28734 14.9962 3 14.2729 3H9.72747C9.00415 3 8.31046 3.28734 7.79899 3.7988C7.28753 4.31027 7.0002 5.00396 7.0002 5.72728V11.6307M12.0002 18V21M16.0002 21H8.0002M12.22 15C14.5676 14.9919 16.6069 13.3834 17.1616 11.1023C17.3184 10.4572 17.8951 10.0023 18.559 10C19.0051 10.0031 19.425 10.211 19.6978 10.564C19.9706 10.9169 20.066 11.3757 19.9565 11.8082C19.0753 15.4319 15.8358 17.9871 12.1065 18H11.8939C8.16462 17.9871 4.92509 15.4319 4.04393 11.8082C3.93445 11.3757 4.02984 10.917 4.30262 10.564C4.5754 10.211 4.9953 10.0031 5.44137 10C6.10526 10.0023 6.68196 10.4572 6.83883 11.1023C7.39352 13.3834 9.43279 14.9919 11.7804 15H12.22Z" stroke="currentColor" stroke-width="1.5" stroke-linecap="round" stroke-linejoin="round"/></svg>