<svg xmlns="http://www.w3.org/2000/svg" fill="none" viewBox="0 0 46 32" role="presentation" preserveAspectRatio="xMinYMin" class="DwbroHBHWXWPCpIQfQPh"><title>Virgin Atlantic Tailfin</title><path class="bBzN6zjxy4JeBfS9Egxo ZT6jYSWLIXGmNGiJStGh" fill-rule="evenodd" d="M45.6 0H26.624c-5.875 0-7.31.961-9.654 3.527L0 22.11c13.553-.647 17.731 12.974 31.504 9.241L45.6 0" clip-rule="evenodd"/><path class="jAm7F638dpkOErMrtFOi Eqj_WvVQiLzhXgWxAHRH" fill-rule="evenodd" d="M38.346 12.897c-.137-.238-.492-.399-1.118-.127-.671.29-.946.42-.968.427-.019.004-.819.42-.735-.662l.25-2.551s.102-.926-.627-.926c0 0-.385-.04-1.006.499 0 0-.304.285-.537.347a.852.852 0 0 1-.517-.027.936.936 0 0 0-.59.004s-.696.184-.747 1.132l-.28 2.265s-.15.882-.071 1.05c0 0 .073.355.715.14 0 0 .543-.163.605-1.09 0 0 .157-1.812.414-2.165 0 0 .307-.578.748-.825 0 0 .627-.299.618.212l-.225 2.078s-.221 1.02.239 1.182c0 0 .052.022-.064.084 0 0-2.994 1.27-6.851 3.417.264-2.183.717-5.219.717-5.219.066-.493-.54-.493-.54-.493-.59-.018-.672.672-.724.976-.049.303-.494 2.766-.494 2.766-.204 1.117-.869 1.061-.869 1.061-.655.077-.264-1.692-.264-1.692.175-.636.237-1.17.736-1.597.49-.41.538-.951.168-.965-.617-.033-1.245.63-1.245.63-1.096 1.078-1.092 3.69-1.092 3.69-.022.828.54 1.074.54 1.074.695.316 1.65-.239 1.65-.239.224-.154.194.062.194.062l-.049.662c-2.829 1.634-5.972 3.67-8.686 5.963 0 0-1.244.912-.781 1.518.494.637 1.18.057 1.46-.204 0 0 2.78-2.844 7.911-6.03l-.164 2.139c-.071.965-.381 3.952-.381 3.952-.145 1.173.044 1.403.11 1.49.105.13.564.521 1.078.188.635-.405.318-1.382.216-1.842-.105-.463-.092-1.219-.092-1.219.046-.615.405-4.77.405-4.77.006-.162.027-.393.054-.672a57.785 57.785 0 0 1 6.749-3.4s1.091-.43 2.021-.723c0 0 .307-.122.7-.238.525-.15 1.203-.385 1.404-.675a.595.595 0 0 0 .014-.657Zm-7.264-3.579s.58-.48.314-.834c0 0-.246-.365-.932.123 0 0-.617.505-.24.858 0 0 .359.334.858-.147Zm-1.66 6.139s.693-.15.814-.936c0 0 .414-2.933.431-3.032.018-.099.197-.87-.347-.751 0 0-.665.127-.784.785l-.518 2.891-.096.584s-.136.624.5.459Zm-8.892-2.675c.536-.427.375-.784.375-.784-.198-.57-.922.037-.922.037-.613.435-.402.862-.402.862.27.463.949-.115.949-.115Zm.674 2.193s-.265 1.916-.31 2.338c0 0-.357 1.617.514 1.325 0 0 .702-.192.812-1.178l.14-1.377s.043-1.023.86-1.47c0 0 .873-.391.609-.931 0 0-.166-.431-.684-.199-.395.172-.605.198-.605.198s-.522.062-.602.075c0 0-.643.027-.734 1.219Zm-1.623-.326c-.81.18-.915 1.103-.915 1.103l-.497 3.678c-.08.731.867.201.867.201.391-.23.459-.712.459-.712l.15-.924.46-2.489c.15-1.034-.524-.857-.524-.857Zm1.165-7.359s.844-1.554 1.51-2.065c0 0 .73-.439.749-1.17 0 0 .056-.476-.337-.784 0 0-1.028-.832-1.862.592 0 0-3.934 7.425-5.293 14.922 0 0-.102.24-.13-.439 0 0-.577-6.287-.6-6.515-.021-.227-.008-.797-.534-.838 0 0-.62-.112-.987.82l-1.744 4.294s-.29.534.177.739c0 0 .52.295.858-.432l.805-1.724c.158-.353.28-.304.28-.304.092.02.13.374.13.374s.71 8.435.718 8.5c.007.065.07.746.64.746.412-.008.541-.466.624-.843.083-.384.848-4.401 2.13-8.735.838-2.832 1.917-5.668 2.866-7.138Z" clip-rule="evenodd"/></svg>