<svg width="24" height="24" viewBox="0 0 24 24" fill="none" xmlns="http://www.w3.org/2000/svg">
<path d="M11.75 7V8.25M11.75 17V15.75M14.237 10C14.172 9.024 13.367 8.25 12.375 8.25H11.005C10.035 8.25 9.25 9.036 9.25 10.005C9.25 10.81 9.798 11.512 10.578 11.708L12.921 12.296C13.702 12.492 14.249 13.194 14.249 13.999C14.249 14.969 13.463 15.754 12.494 15.754H11.124C10.13 15.754 9.325 14.978 9.261 14M4.816 17.388C6.462 19.574 9.069 21 12 21C16.95 21 21 16.95 21 12C21 7.05 16.95 3 12 3C7.05 3 3 7.05 3 12C3 14.019 3.682 15.882 4.816 17.388Z" stroke="currentColor" stroke-width="1.5" stroke-linecap="round" stroke-linejoin="round"/>
</svg>