<svg xmlns="http://www.w3.org/2000/svg" id="europe-icon_svg__Layer_1" viewBox="0 0 100 100"><defs><style>.europe-icon_svg__cls-1{fill:#b8bbbe;stroke:#b8bbbe;stroke-miterlimit:10;stroke-width:.1px}</style></defs><path d="M89.63 35.78c.41.25 1.07.41 1.17.76.19.61.26 1.4-.71 1.66-.16.04-.26.31-.38.48.21.05.48.22.61.14.4-.24.85-.5 1.1-.87.42-.64.73-.48.92.06.34.93.59 1.9.84 2.86.19.7.47 1 1.2.54.4-.25.95-.5.99.4 0 .11.32.25.51.29.15.03.34-.05.49-.12.64-.31 1.44-.53 1.61.32.1.48-.42 1.34-.89 1.61-.76.44-1.42 1.3-2.66.8-.37-.15-1.33 1.05-1.94 1.71-.35.37-.51.94-1.2.6-.08-.04-.33.06-.33.08.08 1.36-.62.45-.99.32-1.29-.44-2.27-.51-3.67.39-1.26.81-1.32 2.01-2.07 2.9-.09.1.2.47.21.72.01.31-.08.62-.12.92-.28-.12-.58-.21-.84-.37-.2-.12-.33-.34-.5-.51-.08.25-.26.52-.23.75.11.86.29 1.7.45 2.56.78-.17.96 1.48 1.96.65.04-.04.16-.06.19-.03.62.59 1.45 1.08 1.79 1.8.33.71.43 1.91-.43 2.33-1.2.58-.77 1.52-.88 2.36-.02.19.14.56.28.59.94.2 1.19.93 1.49 1.69.14.37.41.76.73.98 1.4.98 2.84 1.89 4.26 2.85.18.13.41.38.4.57-.03.99-.09 1.99-.23 2.97-.05.33-.36.63-.55.94-.28-.28-.62-.51-.84-.84-.23-.35-.35-.77-.52-1.16-.4.34-.85.64-1.18 1.04-.41.49-.59 1.23-1.08 1.57-.94.65-1.74-.09-2.54-.56-.56-.33-1.17-.56-1.76-.84-.18-.08-.48-.14-.52-.27-.46-1.61-1.82-1.25-2.95-1.34-.44-.04-.57-.07-.8-.58-.31-.67-1.09-1.39-1.8-1.54-1.07-.24-1.94-.57-2.65-1.41-.2-.23-.59-.3-.9-.44-.73-.33-1.48-.63-2.17-1.02-.13-.08-.13-.52-.08-.77.15-.75 1.07-1.45.09-2.24.18-.16.37-.31.54-.47s.32-.33.48-.49c-.24-.07-.51-.23-.71-.18-.24.07-.41.34-.62.51-.76.6-1.54 1.69-2.28 1.66-.9-.03-1.27 1.35-2.2.6-.01-.01-.2.13-.19.16.03.11.11.29.19.3 1.02.11 1.86 1.35 3.06.49.12-.08.49.19.74.29-.18.18-.33.4-.54.53-.94.61-1.89 1.2-2.85 1.78-.24.15-.53.21-.8.31-.06-.27-.22-.56-.16-.79.22-.79-.4-.74-.82-.89-.73-.25-1.55-.45-.31-1.2.09-.05.12-.19.18-.29-.14-.07-.34-.23-.42-.19-1.09.64-1.41.33-1.09-.84.02-.09-.07-.2-.11-.31-.49.38-1 .74-1.47 1.15-.1.08 0 .36-.09.49-.52.73-.78 1.52-1.05 2.39-.31 1.02-.88 2.11-1.43 3.09-.91 1.62-.95 2.28.55 3.54.96.81.94.76-.14 1.24-.54.24-1.04.66-1.44 1.1-.54.6-.95.83-1.59.13s-2.49-.75-3.17-.14c-.09.08-.17.33-.12.39.32.42.57.76-.21.93-.57.12-1.19.61-1.54-.33-.06-.17-.25-.29-.38-.44 0 .22 0 .45.03.67.09.54.23 1.07.3 1.6.07.54.13.92.88.69.62-.19 2.26.88 2.43 1.48.03.1-.14.33-.27.4-.65.32-1.32.6-1.99.9-.03.01-.05.05-.08.06-.58.26-.57.26-.15 1.06.09.16.16.43.08.55-.07.11-.35.13-.54.12-.37-.02-.8-.23-1.09-.1-1.21.51-1.29-.13-1.26-1.06.01-.35-.17-.71-.26-1.07-.07-.28-.13-.56-.2-.84.29-.04.58-.09.88-.12l1.41-.15c-.47-.14-.93-.37-1.41-.41-.79-.08-1.55.02-2.09-.84-.46-.73-1.23-1.26-1.72-1.97-.21-.31-.14-.86-.1-1.3.17-1.84-.18-2.39-1.79-3.25-1.67-.89-3.22-1.97-4.42-3.48-.1-.13-.22-.29-.24-.45-.06-.7.2-1.81-1.1-.74-.1.08-.62-.1-.68-.26-.11-.27-.04-.64 0-.95.04-.24.16-.47.25-.71-.24.09-.48.22-.74.27-.87.19-1.46.63-1.21 1.59.14.54.46 1.03.75 1.52.37.61.99 1.15 1.16 1.8.37 1.39.98 2.1 2.4 2.27.41.05.89-.02.67.69-.04.12.26.42.46.53.66.37 1.4.63 2.02 1.05.4.27.71.71.93 1.15.08.16-.15.57-.35.75-.08.07-.47-.13-.67-.28-.19-.14-.29-.48-.48-.52-.32-.07-.74-.07-1 .09-.14.09-.18.69-.04.84.76.81.57 1.44-.19 2.1-.22.19-.29.55-.5.77-.19.19-.53.46-.7.41-1.21-.4-1.17.53-1.39 1.22-.13.43-.21 1-.52 1.21-.53.36-.76-.18-1.14-.56-.57-.57-1.47-.8-2.16-1.28-.41-.29-.69-.77-1.02-1.17.53-.12 1.16-.49 1.56-.32 1.15.5 2.18.24 3.32.05.75-.12 1.2-.14 1.24-.99.04-.98-.23-1.76-1.26-2.09-.13-.04-.33-.11-.34-.19-.23-1.33-1.5-1.51-2.37-2.12-2.29-1.6-3.94-3.64-4.55-6.42-.09-.4-.02-.5-.5-.2-.58.36-1.39.3-2.03.59-.82.37-1.53.98-2.35 1.34-.36.16-.91.05-1.31-.1-.29-.11-.47-.49-.71-.73-1.08-1.08-2.46-.91-3 .51-.53 1.39-1.52 1.93-2.88 2.15-.48.08-.95.38-1.37.66-.6.4-1.14.89-1.73 1.31-.53.37-.87.77-.6 1.47.26.69.04 1.03-.72 1.27-.56.17-.99.97-1.52 1.02-.75.08-1.35.07-1.66.88-.05.12-.3.27-.41.24-.91-.23-1.82-.48-2.72-.75-.15-.05-.27-.2-.4-.31-.35.88-1.09.5-1.7.53-.38.02-.86.24-1.1.08-.3-.2-.62-.73-.56-1.07.14-.87-.13-1.24-.98-1.3-.24-.01-.47-.12-.7-.17-1.97-.45-2.2-.88-1.32-2.64.28-.56.58-1.06-.23-1.46-.06-.03 0-.63.16-.77 1.4-1.18 2.24-2.7 2.71-4.43.21-.79.29-1.62.43-2.43.02-.09.06-.25.12-.26.68-.17 1.36-.39 2.06-.45.26-.02.55.35.84.51.43.22.88.42 1.33.61.51.22 1.03.42 1.54.64.15.06.34.27.42.22 1.08-.59 1.76.37 2.54.72 1.01.45 1.86.27 2.38-.54.7-1.08 1.17-2.31 1.72-3.48.07-.14.07-.47.02-.49-1.04-.39-.75-1.36-1.05-2.1-.28-.7-1.13-1.43-1.86-1.62-1.2-.32-.35-1.33-.87-1.79.48-.03.96-.12 1.43-.07.68.08 1.35.26 2.03.4.54.11.99.22 1.07-.62.06-.71.53-.68 1.03-.27 1.18.97 1.91 1 2.89-.17 1.02-1.22 2.16-1.97 3.8-1.91.3.01.66-.39.91-.68.36-.42.61-.92.95-1.35.1-.12.54-.17.55-.14.29.7.4.14.52-.08.54-.95 2.44-1.49 3.47-1 .3.14.67.14 1 .21 0-.38.03-.76 0-1.14-.08-1.34-.22-2.67-.26-4.01-.01-.5 1.52-1.06 2.26-.71.34.16.52.83.58 1.29.03.23-.35.57-.61.78-1.09.89-.96 1.68.16 2.54.68.52 1.29.39 1.98.47.68.08 1.43.48 1.93.96.41.39.54.27.89.05.78-.5 1.56-1.01 2.4-1.4.9-.42 1.89-.87 2.55.44.08.15.44.26.63.21.15-.04.26-.34.32-.54.15-.48-.34-1.82.97-.68.03.03.21-.06.3-.13.81-.71.97-1.37.07-2.22-.23-.22 0-1.02.14-1.53.11-.42.43-.78.6-1.19.37-.88.86-.99 1.56-.33.1.09.17.22.28.31.31.24.62.47.94.7.15-.33.43-.67.4-.98-.04-.4-.25-.9-.56-1.14-.54-.42-.42-1.95.33-2.43.28-.18.64-.34.96-.33 1.43.03 2.72-.32 3.89-1.14.13-.09.29-.15.43-.23-.15-.04-.3-.09-.45-.11-.2-.03-.45.03-.61-.07-1.98-1.31-3.31.42-4.8 1.11-.54.25-.81.35-1.22-.03-.51-.46-1.02-.93-1.53-1.39-.08-.07-.16-.13-.22-.22-.45-.65-.09-4.14.41-4.78.82-1.05 1.61-2.12 2.32-3.25.36-.57.24-1.12-.59-1.3-1.63-.34-1.92-.23-1.92 1.42 0 2.2-1.59 3.17-3.07 4.21-.4.28-.67.39-.6 1 .08.73-.21 1.5-.19 2.24.01.4.24.89.54 1.16 1.17 1.07 1.29 1.85.02 2.67-1.1.71-1.48 1.52-1.48 2.79 0 .83-.4 1.67-.7 2.47-.17.45-.42.89-1.09.44-.15-.1-.79.24-.95.52-.26.46-.16 1.47-.95 1.06-.55-.29-1.05-1.27-1.02-1.92.06-1.7-.3-3.29-.68-4.9-.16-.7-.22-1.42-.33-2.13-.03-.18-.1-.36-.15-.54-.12.14-.32.27-.35.43-.2 1.01-.7 1.7-1.77 1.91-.15.03-.28.2-.4.32-1.06 1.07-2.05.99-2.94-.27-.13-.19-.29-.46-.25-.65.17-.76.81-1.68.56-2.2-.44-.92.38-1.62.04-2.41-.41-.95.08-2.08 1.1-2.23 2.1-.31 3.67-1.3 4.71-3.16.07-.12.19-.3.27-.3 1.4.07 1.09-1.07 1.46-1.84.59-1.22 1.25-2.69 2.32-3.33 1.3-.78 1.8-1.76 2.39-2.98.35-.74 1.33-1.17 2.01-1.75.17-.14.31-.31.45-.48.12-.16.19-.47.32-.49 1.11-.19 1.83-.87 2.43-1.75.06-.08.34-.13.35-.11.6 1.23.97.08 1.5-.06.35-.1.85.33 1.28.54.57.28 1.42.32 1.09 1.36-.04.13.22.5.37.53 1.4.21 2.81.36 4.21.56.53.08 1.11.15 1.57.4.81.44 1.5.94 2.56.81 1.05-.13 1.75 1.8 1.03 2.76-.41.55-.94 1.01-1.45 1.47-.16.14-.46.26-.66.21-1.29-.28-2.56-.62-3.84-.93-.18-.04-.37-.04-.56-.06.11.18.19.49.33.52 1.42.32 2.01 1.25 2.2 2.62.05.33.56.65.91.87.4.25.85.45 1.31.57.28.07.61-.04.92-.06-.17-.25-.3-.55-.52-.74-.36-.3-.79-.53-1.19-.79.55-.12 1.1-.31 1.66-.33.59-.02 1.19.11 1.79.18-.41-.45-.87-.87-1.22-1.37-.15-.21-.2-.66-.07-.87.35-.58.81-1.11 1.25-1.64.37-.45.72-1.06 1.37-.29.08.09.36.12.45.06.11-.08.19-.33.13-.45-.07-.15-.29-.36-.42-.34-.88.11-.78-.46-.85-1.04-.07-.54-.26-1.12-.56-1.57-.4-.6-.21-.88.37-.87.53 0 1.08.18 1.58.38.29.11.49.43.73.65-.22.22-.44.45-.66.67-.11.11-.22.21-.33.32.13.09.26.25.4.26.45.03.9.03 1.34 0 .72-.05.83-.47.63-1.08-.4-1.2.09-2.15 1.24-2.58.13-.05.18-.33.26-.51.16-.36.26-.76.5-1.05.12-.14.55-.17.73-.07.17.1.22.44.27.68.04.21.01.43.02.65.22-.14.52-.23.63-.43.46-.82.83-1.7 1.3-2.52.31-.55.67-.57.92.1.05.14.19.24.29.36.02-.16.09-.34.05-.48-.14-.49-.23-1.04-.52-1.42-.46-.58-.24-.94.19-1.31.85-.72 1.79-.66 2.83.07.6.42 1.31.68 1.94 1.06 1.12.67 1.28 1.25.97 2.47-.13.49.04 1.06.07 1.59.02.26.09.54.03.79-.21.88-.48 1.74-.69 2.62-.04.18.06.45.18.61.76.97 1.58 1.88 2.3 2.87.42.58.84 1.24.96 1.92.38 2.09 1.94 3.49 2.87 5.25.16.31.26.68.3 1.03.13 1.04.13 2.1.37 3.12.06.25.82.33 1.26.49l.18-.39Z" class="europe-icon_svg__cls-1"/><path d="M20.93 46.88c-.02-.11-.07-.22-.04-.31.37-1.11.2-1.58-1.17-1.43-.66.07-.41-.66-.04-.95 1.19-.93 1.42-2.03.82-3.38-.07-.17.03-.48.15-.65.47-.66.86-1.59 1.51-1.86.58-.23 1.47.28 2.22.47-.1.19-.16.45-.32.56-.28.19-.63.28-.93.45-.13.07-.21.24-.32.36.15.07.29.18.44.19.62.06 1.5-.2 1.53.75.03.82-.43 1.51-1.4 1.66-.19.03-.36.19-.54.28-.14.07-.29.13-.43.19.13.03.29.02.39.1 1.01.78 1.52 1.88 1.74 3.07.21 1.12.16 2.29.28 3.44.03.24.3.45.46.68.2.28.6.59.56.84-.05.32-.39.68-.7.85-.5.27-1.15.34-.59 1.14.01.02-.44.53-.64.51-1.47-.19-3.07.25-4.37-.85-.13-.11-.53-.15-.56-.09-.58 1.12-1.53.18-2.26.4-.15.04-.38-.19-.57-.29.13-.13.25-.34.4-.38.92-.26 1.86-.48 2.79-.7.19-.05.39-.06.58-.1-.16-.08-.32-.14-.47-.23-.24-.14-.48-.28-.7-.44-.38-.27-.75-.55-1.12-.82.4-.13.81-.24 1.21-.38.51-.19.9-.48.48-1.07-.46-.63-.11-.9.44-.77 1.22.3 1.21-.42 1.17-1.22ZM62.81 76.09c.4.12 1 .22 1.5.48 1.16.61 2.3.64 3.48.09.83-.38 1.24-.2 1.8.65.53.8.58 1.51.43 2.27-.09.45-.54.84-.84 1.25-.4.53-.97 1-1.2 1.59-.71 1.85-2.37 2.29-3.97 2.7-.78.2-.68-.59-.62-1.08.09-.8.26-1.59.34-2.39.01-.11-.31-.39-.44-.37-.4.06-.77.29-1.17.33-.45.05-.91 0-1.37-.05-.12-.01-.32-.19-.34-.17-.9.91-1.52-.4-2.34-.31-.22.02-.58-.44-.72-.76a9.8 9.8 0 0 1-.67-2.04c-.04-.2.32-.61.58-.7 1.44-.49 2.89-.91 4.35-1.34.33-.1.68-.1 1.21-.17ZM14.14 18.01c.47-.07.94-.17 1.41-.21.13 0 .34.17.38.31.06.18.03.42-.02.61-.22.85-.44 1.6.97 1.13.33-.11.82.29 1.25.39.45.1.95.03 1.38.18.36.12.89.43.91.7.06.67 0 1.41-.25 2.03-.15.37-.7.78-1.1.82-.78.08-1.45.18-2.03.79-.49.52-1.01.45-1.74.13-.98-.43-1.73-.82-1.91-1.98-.02-.16-.62-.23-.96-.35-.25-.09-.49-.18-.73-.27.18-.19.34-.39.54-.55.13-.1.31-.15.48-.19.82-.21.98-.54.31-1.17-.23-.22-.32-.6-.47-.91.31 0 .62.02.93 0 .1 0 .28-.06.28-.1.01-.21.02-.43-.04-.63-.07-.22-.21-.42-.32-.63l.7-.3.06.21ZM16.81 43.03c.52.21 1.33.36 1.86.82.22.2.02 1.22-.3 1.6-.55.65-.83 1.24-.78 2.11.07 1.06-.85 1.54-1.93 1.27-.37-.09-.86.1-1.23.28-.83.41-2.43.36-3.01-.32-.21-.24-.2-1 .02-1.21.42-.41 1.05-.61 1.61-.87.66-.3.82-.67.13-1.08-.64-.39-.79-.67.03-1 .14-.06.29-.21.35-.35.37-.78.79-.75 1.3-.13.1.12.26.19.39.29-.01-.14-.02-.28-.04-.42-.09-.74.29-1.01 1.6-1Z" class="europe-icon_svg__cls-1"/></svg>