<svg width="24" height="24" viewBox="0 0 24 24" fill="none" xmlns="http://www.w3.org/2000/svg">
<path fill-rule="evenodd" clip-rule="evenodd" d="M20.2 6.60001L16.9 9.90001L18.7 18.8C18.8 19.1 18.7 19.5 18.4 19.7L17.7 20.4C17.2 20.9 16.3 20.7 16.1 20.1L13.5 13.4L10.1 16.8L10.3 19C10.3 19.3 10.2 19.6 10 19.8L8.90005 20.9L6.80005 17.4L3.30005 15.3L4.30005 14C4.50005 13.8 4.80005 13.7 5.10005 13.7L7.30005 13.9L10.7 10.5L3.90005 7.90001C3.30005 7.60001 3.10005 6.80001 3.60005 6.30001L4.30005 5.60001C4.50005 5.40001 4.90005 5.30001 5.20005 5.30001L14.1 7.10001L17.4 3.80001C18.2 3.00001 19.4 3.00001 20.2 3.80001V3.80001C21 4.60001 21 5.80001 20.2 6.60001V6.60001Z" stroke="currentColor" stroke-width="1.5" stroke-linecap="round" stroke-linejoin="round"/>
</svg>