<svg xmlns="http://www.w3.org/2000/svg" id="travelaware-logo_svg_Layer_1" viewBox="0 0 70 64"><defs><style>.travelaware-logo_svgcls-1{fill:#fff;stroke-width:0}</style></defs><path d="M4.91 63.4c-.22-.07-.43-.14-.68-.21v-.66c.75.18 1.5.5 2.15-.1.4-.36.41-.87.37-1.42-.17.13-.3.24-.44.33-.77.48-1.77.19-2.18-.63-.31-.63-.31-1.3-.17-1.97.24-1.18 1.56-1.87 2.8-.82.02-.14.05-.26.07-.41h.78v1.63c0 .69-.02 1.38 0 2.07.03 1.07-.35 1.85-1.42 2.19zm-.15-3.96c.04.27.05.52.11.75.12.44.4.71.87.73.47.01.77-.25.92-.67.2-.56.18-1.13-.08-1.67-.18-.36-.47-.53-.87-.5-.39.02-.65.22-.78.57-.09.26-.12.54-.17.79m30.45-44.43c.65-1.1 2.13-1.59 3.35-1.14.75.27 1.34.75 1.85 1.35 1.36 1.64 2.1 3.58 2.74 5.58.06.19.12.38.18.56 0 .03.04.05.1.12.08-.22.16-.4.22-.59 1.78-4.98 4.15-9.65 7.5-13.78 1.84-2.26 3.94-4.23 6.5-5.67.57-.32 1.2-.52 1.8-.77.13-.05.28-.04.57-.08-.2.23-.29.36-.41.45-4.35 3.63-7.57 8.13-10.11 13.15-1.9 3.76-3.04 7.79-4.19 11.81-.32 1.12-.64 2.24-1 3.35-.12.37-.32.73-.57 1.03-.5.61-1.31.51-1.56-.23-.33-.98-.55-1.99-.79-2.99-.67-2.74-1.36-5.49-2.57-8.05-.47-1-1.1-1.94-1.73-2.85-.44-.64-1.1-1.07-1.89-1.25Zm-3.02 13.45c-1.79 2.96-5.25 3.63-8.07 2.58-1.73-.64-2.77-1.9-2.99-3.76-.23-1.94.3-3.62 1.88-4.86 1.35-1.06 2.94-1.52 4.61-1.71 1.24-.14 2.49-.15 3.73-.21.21-.01.42 0 .68 0 .06-1.26.07-2.47-.57-3.57-.66-1.13-1.75-1.48-2.97-1.53-1.88-.08-3.65.32-5.33 1.39-.08-.8-.15-1.54-.23-2.4 1.08-.29 2.13-.61 3.2-.84 1.31-.28 2.64-.31 3.96-.07 2.55.46 4.09 2.07 4.41 4.67.08.62.11 1.24.11 1.87.04 3.27.06 6.54.09 9.81 0 .41.07.81.11 1.26h-2.48c-.04-.84-.09-1.69-.13-2.62Zm-.15-6.06c-1.88-.03-3.71-.03-5.45.59-.69.25-1.39.63-1.93 1.13-.95.88-1.12 2.06-.78 3.28.32 1.13 1.21 1.69 2.31 1.89.51.1 1.05.12 1.57.09 1.81-.1 3.09-.98 3.77-2.69.54-1.36.55-2.79.51-4.29m-9.83 28.85h-2.62c-1.54-4.84-3.08-9.7-4.64-14.61h2.33c1.22 4.11 2.44 8.24 3.66 12.37h.1c1.24-4.12 2.48-8.23 3.72-12.38h2.59c1.24 4.11 2.47 8.23 3.71 12.34.04 0 .08.01.12.02 1.21-4.12 2.42-8.23 3.64-12.37h2.09c-1.52 4.9-3.04 9.75-4.55 14.62h-2.65c-1.22-4.11-2.44-8.23-3.67-12.36h-.1c-1.24 4.11-2.47 8.21-3.72 12.36Zm30.51-28.16c-.33 3.94 2.77 6.8 6.64 6.25 1.31-.19 2.58-.49 3.84-1.15.08.82.15 1.59.23 2.48-.97.22-1.9.47-2.85.63-1.48.25-2.98.31-4.46.04-2.55-.48-4.38-1.92-5.3-4.35-1.19-3.14-1.21-6.3.25-9.38.98-2.07 2.52-3.57 4.82-4.1 3.59-.82 6.61.89 7.81 4.37.58 1.67.67 3.4.64 5.21H52.73Zm-.04-1.93h9.03c-.01-1.28-.21-2.48-.79-3.6-1.18-2.29-3.96-2.9-5.97-1.28-1.53 1.23-2.14 2.93-2.27 4.88M14.4 51.24h-2.09v-2.21c-.37.44-.61.79-.91 1.08-1.72 1.69-4.79 1.98-6.8.65-2.25-1.48-2.29-5.07-.08-6.8 1.16-.91 2.54-1.29 3.97-1.46 1.01-.12 2.03-.13 3.05-.18.18 0 .35-.02.56-.02.06-.96.05-1.87-.35-2.73-.49-1.04-1.39-1.44-2.47-1.5-1.52-.09-2.97.18-4.31.97-.08.05-.17.08-.32.15-.06-.66-.11-1.27-.17-1.92 2.24-.83 4.48-1.34 6.81-.61 1.82.56 2.64 1.95 2.9 3.73.08.53.1 1.08.1 1.62.01 2.1 0 4.21 0 6.31 0 .96.07 1.93.11 2.92m-2.31-7.32c-1.8.03-3.57 0-5.23.77a3.3 3.3 0 0 0-.92.64c-1.17 1.12-1.06 3.13.2 3.97 1.71 1.15 4.45.45 5.37-1.38.63-1.24.65-2.58.58-4m35.52 7.32h-1.97v-2.07s-.08-.02-.11-.03c-.05.06-.12.12-.16.19-1.77 2.71-5.58 2.76-7.58 1.33-2.14-1.52-2.09-5.04.08-6.72 1.17-.9 2.54-1.29 3.98-1.45 1.17-.13 2.35-.16 3.54-.24.56-2.02-.61-3.98-2.55-4.17-1.52-.15-2.98.1-4.34.84-.15.08-.31.16-.52.27-.06-.67-.11-1.26-.18-1.98.84-.23 1.67-.49 2.51-.68 1.16-.26 2.34-.32 3.52-.09 2.2.43 3.45 1.77 3.7 4q.09.81.09 1.62c.01 1.48 0 2.96 0 4.43v4.74Zm-2.18-7.27c-1.29-.18-3.76.08-4.86.55-.43.18-.86.42-1.21.73-1.28 1.12-1.17 3.24.18 4.09 1.82 1.14 4.54.32 5.4-1.63.53-1.19.55-2.45.49-3.74m23.63.59H59.4c-.41 2.45 1.65 5.07 4.07 5.23 1.49.1 2.91-.18 4.27-.78.13-.06.26-.11.44-.18.06.68.11 1.31.17 2.05-.81.18-1.6.46-2.4.52-1.22.1-2.47.19-3.67.03-2.1-.28-3.64-1.48-4.44-3.46-1.08-2.68-1.13-5.39.12-8.02.95-2 2.46-3.33 4.76-3.59 2.6-.29 4.7.94 5.7 3.35.56 1.34.85 3.44.64 4.85m-2.14-1.67c-.04-1.18-.22-2.25-.79-3.23-.44-.75-1.06-1.28-1.93-1.5-2.48-.62-5.19 2.03-4.8 4.73zM4.03 15.71H.79v-2H4V9.79l2.58-.9v4.79h3.93v2H6.62c0 .21-.02.39-.02.56v10.15c0 .36.04.72.1 1.08.21 1.21.96 1.85 2.19 1.79.61-.03 1.22-.21 1.9-.34.05.64.1 1.32.16 2.07-.44.12-.87.3-1.32.35-.66.09-1.34.15-2.01.13-1.79-.07-2.93-.99-3.29-2.75-.2-1.01-.28-2.05-.29-3.08-.04-3.09-.01-6.18-.01-9.26v-.66Zm65.06 15.38h-2.53V5.93h2.53zm-53.47.01H13V13.73h2.23c.05 1 .1 1.98.15 3.02 1.96-2.97 3.92-4.01 6.08-3.23-.04.81-.09 1.63-.13 2.48-.45-.05-.84-.11-1.23-.13-1.61-.08-2.78.62-3.54 2.03-.59 1.11-.87 2.31-.89 3.55-.05 2.99-.04 5.98-.05 8.97zm41.49 5.34c-.04.74-.08 1.42-.13 2.13-.39-.04-.72-.09-1.06-.11-1.36-.06-2.4.53-2.93 1.75-.38.87-.67 1.84-.71 2.78-.11 2.53-.07 5.06-.09 7.59v.67h-2.2v-14.6h1.88c.04.82.08 1.63.13 2.56 1.13-2.06 2.63-3.27 5.12-2.76Zm-2.32 21.07h.99c.3 1.06.6 2.11.94 3.28.32-1.16.61-2.2.91-3.26h.8c-.4 1.36-.8 2.68-1.2 4.03h-1.04c-.3-1.05-.6-2.11-.93-3.27-.33 1.16-.64 2.21-.94 3.27h-1.04c-.41-1.34-.81-2.67-1.23-4.04h.88c.29 1.04.59 2.09.92 3.27.34-1.18.64-2.22.94-3.27ZM21.9 55.73h.83v3.32c.56-.57 1.06-1.08 1.49-1.53h1.09c-.65.59-1.24 1.13-1.85 1.68.73.85 1.35 1.56 2.03 2.34h-1.06c-.51-.6-1.05-1.24-1.69-1.98v1.98h-.85v-5.81Zm-9.68 3.8c0 1.33-.78 2.14-2.03 2.13-1.23-.01-1.98-.83-1.98-2.14 0-1.27.82-2.12 2.02-2.12 1.23 0 1.99.81 1.99 2.12Zm-3.13 0c.06.27.08.55.18.81.16.44.5.69.98.68.59-.01 1-.52 1.05-1.27.07-.92-.27-1.56-.87-1.66-.79-.13-1.31.43-1.34 1.44m28.63 2.01h-.71c-.03-.12-.06-.26-.09-.4-.04.01-.09.01-.12.04-.37.38-.82.52-1.34.47-.59-.06-.98-.36-1.11-.88-.13-.54.08-1.13.61-1.37.41-.18.87-.25 1.32-.34.19-.04.39 0 .57 0 .09-1.04-.45-1.24-2.04-.79-.02-.18-.03-.35-.05-.56.74-.32 1.48-.43 2.24-.12.48.19.71.61.72 1.09.03.95 0 1.89 0 2.87Zm-.92-2.01c-.43.1-.9.14-1.29.33-.19.09-.34.5-.3.72.03.18.36.42.58.45.77.11 1.22-.52 1.01-1.5m-15.66 2.02h-.69c-.03-.15-.06-.28-.09-.44-.05.02-.1.03-.13.06-.5.54-1.11.62-1.76.37-.61-.24-.73-.81-.74-1.38-.02-.87 0-1.73 0-2.63h.85v1.55c0 .39.01.79.03 1.18.02.38.19.66.6.73.41.06.78-.06.94-.46.12-.31.15-.67.17-1.01.02-.65 0-1.31 0-1.99h.82v4.03Zm30.42 0h-.73c-.03-.13-.07-.26-.11-.41-.04.02-.09.02-.12.05-.37.38-.83.51-1.35.45-.57-.06-.97-.37-1.08-.85-.13-.56.05-1.11.55-1.35.42-.2.9-.27 1.36-.37.2-.04.42 0 .63 0 .01-1.05-.45-1.22-2.09-.8-.02-.18-.03-.35-.05-.56.71-.3 1.42-.42 2.15-.15.61.22.82.72.83 1.32.01.87 0 1.74 0 2.67Zm-.86-2.02c-.45.09-.87.13-1.27.25-.35.11-.5.41-.43.78s.36.48.69.48c.71.02 1.08-.49 1.01-1.52Zm10.57-.47c-.02-1.08-.56-1.27-2.09-.78-.02-.19-.03-.37-.05-.58.68-.28 1.34-.39 2.03-.2.58.16.93.62.94 1.29.02.9 0 1.8 0 2.74h-.73c-.03-.12-.07-.26-.11-.44-.41.42-.87.61-1.43.55-.57-.06-.98-.36-1.1-.83-.14-.59.06-1.17.6-1.42.39-.18.84-.24 1.27-.33.2-.04.42 0 .66 0Zm-.03.47c-.47.1-.9.15-1.31.29-.33.11-.45.42-.38.76s.33.46.65.48c.74.04 1.14-.49 1.04-1.53m-15.58.22h-2.62c-.18 1.11.69 1.52 2.29 1.09.02.09.06.18.07.27s0 .19 0 .28c-.85.44-2.12.35-2.71-.19-.6-.54-.8-1.68-.46-2.57.31-.81 1.03-1.29 1.83-1.22.84.07 1.34.56 1.51 1.49.05.25.05.52.09.85m-2.67-.54h1.78c.01-.76-.33-1.22-.86-1.21s-.93.51-.92 1.21m25.96 1.65c.02.19.03.38.05.58-.69.25-1.35.31-2.02.15-1.02-.26-1.55-1.37-1.27-2.59.23-1.03 1.03-1.67 1.95-1.57.95.1 1.51.8 1.54 1.9v.44h-2.62c-.08 1.13.63 1.45 2.36 1.11Zm-.56-1.65c-.02-.47-.08-.93-.53-1.1-.25-.09-.63-.04-.86.09-.34.2-.51.57-.42 1h1.81Zm-28.33 1.6c.35-1.17.66-2.22.97-3.29h.85c-.44 1.34-.88 2.67-1.32 4.02h-1.05c-.43-1.3-.87-2.63-1.32-4.01h.9c.31 1.04.62 2.1.97 3.28m-25.2.75h-1.04c-.44-1.32-.87-2.65-1.33-4.03h.9l.92 3.12c.03 0 .06.01.09.02.31-1.05.63-2.1.94-3.16h.85c-.45 1.36-.88 2.69-1.33 4.05m15.27-4.1c.34.02.6.03.89.05v.57c-.27.02-.54.03-.85.05 0 .82-.04 1.63.01 2.42.03.55.49.46.91.37.02.22.03.39.05.54-1.04.51-1.77.12-1.83-.99-.04-.77 0-1.54 0-2.33-.26-.02-.47-.04-.71-.07v-.56c.2-.02.41-.04.66-.06.02-.27.05-.54.07-.84.25-.08.49-.16.8-.27v1.11Zm16.35-1.73h.8v5.8h-.8zm18.76 1.73v.69c-1.05.17-1.33.49-1.34 1.56v1.84h-.81v-4.01h.69c.02.14.05.28.09.51.4-.39.78-.77 1.38-.59Zm-32.52 4.1h-.81v-4.03h.69c.02.16.05.33.07.51.7-.64.81-.69 1.39-.57v.65c-1.14.25-1.34.51-1.34 1.71v1.72Z" class="travelaware-logo_svgcls-1"></path><path d="M27.58 56.15h.73c-.72 1.82-1.41 3.6-2.12 5.39h-.73c.72-1.83 1.42-3.6 2.12-5.39m-11.41 4.58h.86v.8h-.82c-.01-.23-.02-.49-.04-.8" class="travelaware-logo_svg_cls-1"></path></svg>